<?xml version="1.0" encoding="UTF-8" standalone="no"?>
<!DOCTYPE svg PUBLIC "-//W3C//DTD SVG 1.1//EN" "http://www.w3.org/Graphics/SVG/1.1/DTD/svg11.dtd">
<svg xmlns="http://www.w3.org/2000/svg">
<metadata>
This is a custom SVG webfont generated by Font Squirrel.
Copyright   : Copyright c 2010 by Fontsmith Ltd All rights reserved
Designer    : Jason Smith Fernando Mello Phil Garnham
Foundry     : Fontsmith Ltd
Foundry URL : httpwwwfontsmithcom
</metadata>
<defs>
<font id="FSJoeyLight" horiz-adv-x="1048">
<font-face units-per-em="2048" ascent="1536" descent="-512"/>
<missing-glyph horiz-adv-x="462"/>
<glyph unicode=" " horiz-adv-x="462"/>
<glyph unicode="	" horiz-adv-x="462"/>
<glyph unicode=" " horiz-adv-x="462"/>
<glyph unicode="!" horiz-adv-x="442" d="M143 53v41q0 74 66 74h24q66 0 66 -74v-41q0 -72 -66 -71h-24q-66 -1 -66 71zM172 1296q0 20 21 21h55q20 0 20 -21l-8 -989q0 -20 -16 -20h-47q-16 0 -17 20z"/>
<glyph unicode="&quot;" horiz-adv-x="610" d="M100 1380q-2 18 5.5 23.5t25.5 5.5h47q18 0 24.5 -5t6.5 -24l-14 -430q0 -25 -23 -24h-35q-23 0 -22 24zM403 1380q-2 18 5.5 23.5t25.5 5.5h47q18 0 24.5 -5t6.5 -24l-14 -430q0 -25 -23 -24h-35q-23 0 -22 24z"/>
<glyph unicode="#" horiz-adv-x="1218" d="M2 422l12 49q4 14 29 14h256l80 361h-273q-14 0 -19 4t-1 14l12 49q4 14 29 15h266l82 375q4 20 21 20h57q18 0 12 -20l-80 -375h342l82 375q4 20 21 20h53q20 0 14 -20l-79 -375h278q14 0 19.5 -4t1.5 -15l-13 -49q-4 -14 -28 -14h-275l-78 -361h289q14 0 19.5 -4 t1.5 -14l-13 -49q-4 -14 -28 -15h-285l-82 -383q-4 -20 -25 -20h-47q-18 0 -16 20l80 383h-342l-82 -383q-6 -20 -23 -20h-53q-16 0 -14 20l80 383h-260q-14 0 -19.5 4.5t-1.5 14.5zM391 483h342l80 363h-344z"/>
<glyph unicode="$" d="M137 94l15 47q6 20 28 11q133 -59 312 -60h16v555l-66 17q-150 39 -226.5 111.5t-76.5 193.5v35q0 143 92.5 225t264.5 92v184q0 25 20 25h39q20 0 20 -25v-182q162 -6 263 -41q20 -8 16 -31l-8 -41q-6 -20 -33 -12q-98 31 -238 37v-508l33 -8q176 -43 244 -113.5 t68 -210.5v-37q0 -158 -88.5 -244.5t-245.5 -105.5v-201q0 -25 -25 -24h-29q-25 0 -24 24v197h-14q-182 0 -344 64q-21 8 -13 26zM244 983q0 -109 63.5 -159t188.5 -81v492q-252 -16 -252 -231v-21zM586 98q231 37 231 252v23q0 115 -52 171t-179 85v-531z"/>
<glyph unicode="%" horiz-adv-x="1497" d="M102 973v24q0 209 78 289q53 57 168 57t168 -57q78 -80 78 -289v-24q0 -209 -78 -289q-53 -57 -168 -57t-168 57q-78 80 -78 289zM188 975q0 -156 40 -216.5t120 -60.5t120 60.5t40 216.5v20q0 156 -40 216.5t-120 60.5t-120 -60.5t-40 -216.5v-20zM334 -2l725 1333 q8 12 22 12h68q18 0 10 -16l-725 -1333q-8 -12 -22 -12h-68q-18 0 -10 16zM903 328v24q0 209 78 289q53 57 168 57t168 -57q78 -80 78 -289v-24q0 -209 -78 -289q-53 -57 -168 -57t-168 57q-78 80 -78 289zM989 330q0 -156 40 -216.5t120 -60.5t120 60.5t40 216.5v20 q0 156 -40 216.5t-120 60.5t-120 -60.5t-40 -216.5v-20z"/>
<glyph unicode="&amp;" horiz-adv-x="1243" d="M100 313v31q0 264 258 379q-162 162 -161 328v8q0 129 80.5 206.5t224.5 77.5q147 0 224 -76.5t77 -201.5v-21q0 -125 -53.5 -219t-190.5 -170l352 -350q25 76 25 197v149q0 20 22 21h50q20 0 20 -23v-137q0 -170 -41 -281l184 -180q16 -16 0 -33l-30 -28q-18 -14 -39 4 l-158 153q-109 -166 -383 -165h-82q-188 0 -283.5 87.5t-95.5 243.5zM203 322q0 -256 289 -256h49q262 0 336 149l-463 455q-117 -57 -164 -133t-47 -193v-22zM299 1042q0 -72 39 -139t141 -170l25 -24q115 66 158 141.5t43 198.5v12q0 100 -55.5 150.5t-143.5 50.5 q-207 0 -207 -211v-9z"/>
<glyph unicode="'" horiz-adv-x="307" d="M100 1380q-2 18 5.5 23.5t25.5 5.5h47q18 0 24.5 -5t6.5 -24l-14 -430q0 -25 -23 -24h-35q-23 0 -22 24z"/>
<glyph unicode="(" horiz-adv-x="557" d="M154 590q0 453 288 835q12 14 29 5l33 -21q18 -10 6 -27q-254 -340 -254 -792.5t254 -792.5q12 -16 -6 -26l-33 -21q-16 -10 -29 4q-288 381 -288 836z"/>
<glyph unicode=")" horiz-adv-x="557" d="M47 -203q254 340 254 792.5t-254 792.5q-12 16 6 27l33 21q16 10 29 -5q289 -383 288 -835q0 -455 -288 -836q-12 -14 -29 -4l-33 21q-18 10 -6 26z"/>
<glyph unicode="*" horiz-adv-x="675" d="M57 1245l25 60q8 27 35 12l196 -105l-32 240q-6 31 24 31h66q31 0 24 -31l-33 -240l197 105q27 14 35 -12l24 -60q10 -25 -20 -31l-219 -55l174 -186q20 -23 0 -37l-55 -37q-25 -16 -39 10l-121 211l-121 -211q-14 -27 -39 -10l-55 37q-20 14 0 37l174 186l-219 55 q-31 6 -21 31z"/>
<glyph unicode="+" d="M109 504v61q0 14 12 15h358v356q0 14 15 14h61q12 0 12 -14v-356h359q12 0 12 -13v-63q0 -12 -12 -12h-359v-359q0 -14 -12 -14h-61q-14 0 -15 14v359h-358q-12 0 -12 12z"/>
<glyph unicode="," horiz-adv-x="366" d="M109 43v68q0 68 65 67h27q80 0 80 -86v-41q0 -150 -107 -309q-8 -14 -22 -6l-39 22q-12 6 -2 21q55 86 75 158q6 27 -16 36l-25 11q-36 16 -36 59z"/>
<glyph unicode="-" horiz-adv-x="563" d="M72 504v61q0 14 14 15h391q14 0 15 -15v-61q0 -14 -15 -15h-391q-14 1 -14 15z"/>
<glyph unicode="." horiz-adv-x="378" d="M109 49v55q0 68 69 68h21q41 0 56 -16.5t15 -51.5v-55q0 -35 -15 -51t-56 -16h-21q-69 -1 -69 67z"/>
<glyph unicode="/" horiz-adv-x="630" d="M53 -33l428 1428q6 18 23 18h57q20 0 17 -20l-428 -1428q-6 -18 -23 -18h-57q-23 0 -17 20z"/>
<glyph unicode="0" d="M127 635v55q0 248 51 395.5t134 202.5t212 55t212 -55t134.5 -202.5t51.5 -395.5v-55q0 -248 -51.5 -395.5t-134.5 -202.5t-212 -55t-212 55t-134 202.5t-51 395.5zM229 649q0 -143 12.5 -244.5t45 -181.5t91 -118.5t146.5 -38.5t146.5 38.5t91.5 118.5t45 181.5 t12 244.5v27q0 143 -12 244.5t-45 181.5t-91.5 119t-146.5 39t-146.5 -39t-91 -119t-45 -181.5t-12.5 -244.5v-27z"/>
<glyph unicode="1" d="M164 16v45q0 18 18 19h316v1151h-9l-239 -148q-14 -8 -23 4l-26 48q-8 14 8 24l240 150q27 16 69 16h41q33 0 33 -31v-1214h313q18 0 19 -19v-45q0 -16 -19 -16h-723q-18 0 -18 16z"/>
<glyph unicode="2" d="M166 35v190q0 168 51 260.5t203 155.5l147 61q127 53 173 117t46 170v15q0 143 -66.5 198t-209.5 55q-147 0 -289 -47q-25 -8 -31 17l-8 37q-6 23 17 28q150 51 313 51q190 0 283.5 -74.5t93.5 -258.5v-23q0 -139 -61.5 -215t-213.5 -143l-145 -64q-135 -59 -172 -125.5 t-37 -240.5v-119h588q18 0 18 -19v-45q0 -16 -18 -16h-647q-20 0 -27.5 7.5t-7.5 27.5z"/>
<glyph unicode="3" d="M156 57l8 35q4 23 29 14q143 -45 286 -45q139 0 219 68t80 211v20q0 178 -91 238.5t-284 60.5h-55q-20 0 -20 19v53q0 18 20 19h55q190 0 270.5 62t80.5 196v20q0 229 -250 229q-131 0 -260 -43q-23 -8 -29 15l-8 37q-4 20 16 28q129 49 285 49q174 0 261 -80.5 t87 -226.5v-28q0 -231 -211 -297v-9q104 -23 170 -104.5t66 -222.5v-23q0 -190 -103.5 -280t-288.5 -90q-166 0 -317 47q-18 8 -16 28z"/>
<glyph unicode="4" d="M76 389v21q0 25 30 75l492 799q27 41 78 41h69q39 0 39 -37v-852h146q18 0 18 -18v-45q0 -16 -18 -17h-146v-333q0 -23 -18 -23h-57q-18 0 -19 23v333h-584q-30 0 -30 33zM178 436h512v807h-16z"/>
<glyph unicode="5" d="M143 76l13 39q6 20 32 8q133 -57 295 -57q156 0 238 79.5t82 257.5v17q0 154 -68 237q-63 80 -203 80q-141 0 -266 -75q-20 -10 -35 -9l-28 9q-16 6 -15 26l41 610q2 27 31 27h531q23 0 22 -22v-41q0 -25 -22 -25h-459q-18 0 -19 -16l-32 -467q109 70 260 69 q170 0 264 -94q100 -102 100 -311v-17q0 -213 -112 -317q-113 -102 -322 -102q-170 0 -311 63q-23 11 -17 31z"/>
<glyph unicode="6" d="M133 612v19q0 385 154 569q119 143 350 143q106 0 186 -26q23 -8 17 -29l-9 -33q-6 -20 -28 -16q-90 20 -176 21q-195 0 -285 -144.5t-104 -410.5q133 119 321 118q168 0 265.5 -102.5t97.5 -280.5v-39q0 -188 -110 -303.5t-269 -115.5q-410 -1 -410 630zM236 600 q0 -532 311 -532q125 0 198.5 90t73.5 245v27q0 154 -72.5 230.5t-203.5 76.5q-180 0 -307 -137z"/>
<glyph unicode="7" d="M135 1262v41q0 23 23 22h749q18 0 24.5 -6t6.5 -23v-26q0 -27 -43 -113l-573 -1134q-10 -23 -37 -23h-52q-33 0 -20 25l623 1212h-678q-23 0 -23 25z"/>
<glyph unicode="8" d="M129 338v8q0 115 61.5 206t171.5 142q-102 47 -152 127t-50 170v27q0 145 99 235t265 90q174 0 264.5 -86t90.5 -223v-26q0 -211 -220 -340q258 -94 259 -314v-18q0 -170 -109 -262t-285 -92q-180 0 -287.5 87t-107.5 269zM233 326q0 -127 81 -195t210 -68q131 0 209 71 t78 200v12q0 96 -60.5 158.5t-189.5 109.5l-117 43q-211 -98 -211 -315v-16zM268 997q0 -100 56.5 -161.5t175.5 -106.5l75 -29q102 63 149.5 135t47.5 173v14q0 109 -63.5 174.5t-184.5 65.5q-123 0 -189.5 -68t-66.5 -178v-19z"/>
<glyph unicode="9" d="M119 891v39q0 182 105.5 297.5t289.5 115.5q115 0 194.5 -46t124 -134t63.5 -197.5t19 -252.5v-21q0 -711 -481 -710q-131 0 -223 30q-18 6 -16 27l8 37q6 23 30 16q119 -29 201 -29q373 0 377 576q-57 -59 -146.5 -98t-189.5 -39q-166 0 -261 106.5t-95 282.5zM225 897 q0 -309 269 -309q172 0 317 141q0 535 -293 535q-145 0 -219 -91.5t-74 -252.5v-23z"/>
<glyph unicode=":" horiz-adv-x="378" d="M109 49v55q0 68 69 68h21q41 0 56 -16.5t15 -51.5v-55q0 -35 -15 -51t-56 -16h-21q-69 -1 -69 67zM109 829v56q0 68 69 67h21q41 0 56 -16t15 -51v-56q0 -35 -15 -51t-56 -16h-21q-69 -1 -69 67z"/>
<glyph unicode=";" horiz-adv-x="366" d="M109 43v68q0 68 65 67h27q80 0 80 -86v-41q0 -150 -107 -309q-8 -14 -22 -6l-39 22q-12 6 -2 21q55 86 75 158q6 27 -16 36l-25 11q-36 16 -36 59zM111 829v56q0 68 69 67h21q41 0 56 -16t15 -51v-56q0 -35 -15 -51t-56 -16h-21q-69 -1 -69 67z"/>
<glyph unicode="&lt;" d="M174 516v37q0 12 10 18l631 342q20 12 31 -4l22 -43q12 -20 -8 -30l-559 -299l559 -299q20 -10 8 -31l-22 -43q-10 -16 -31 -4l-631 338q-10 6 -10 18z"/>
<glyph unicode="=" d="M109 322v61q0 14 12 14h805q12 0 12 -12v-63q0 -12 -12 -13h-805q-12 1 -12 13zM109 686v62q0 14 12 14h805q12 0 12 -12v-64q0 -12 -12 -12h-805q-12 0 -12 12z"/>
<glyph unicode="&gt;" d="M180 207q-12 20 8 31l560 299l-560 299q-20 10 -8 30l23 43q10 16 30 4l631 -342q10 -6 10 -18v-37q0 -12 -10 -18l-631 -338q-20 -12 -30 4z"/>
<glyph unicode="?" horiz-adv-x="907" d="M92 1268q-2 16 10 22q147 53 320 53q383 0 383 -319v-25q0 -188 -197 -321l-102 -70q-88 -59 -111.5 -105t-23.5 -155v-57q0 -23 -19 -23h-57q-18 0 -19 23v57q0 125 30 188.5t128 129.5l101 67q100 68 136 120t36 148v15q0 248 -293 248q-152 0 -291 -52q-18 -6 -21 13z M248 53v29q0 74 65 74h25q66 0 65 -74v-29q0 -72 -65 -71h-25q-65 -1 -65 71z"/>
<glyph unicode="@" horiz-adv-x="1593" d="M106 625q0 344 201 551.5t533 207.5q287 0 471 -165.5t184 -448.5q0 -231 -94 -356t-242 -125q-90 0 -149.5 41t-71.5 100q-29 -55 -86 -92t-129 -37q-98 0 -155.5 63.5t-57.5 184.5q0 127 35 258q27 100 93.5 157.5t162.5 57.5q129 0 182 -102l12 53q6 20 29 20h29 q14 0 20 -4t4 -20l-45 -348q-12 -86 -12 -119q0 -135 143 -135q119 0 181.5 107.5t62.5 287.5q0 242 -152.5 389t-418.5 147q-285 0 -460 -178t-175 -485q0 -299 174 -453.5t467 -154.5q215 0 391 75q20 8 29 -10l10 -29q8 -23 -15 -32q-178 -86 -430 -86 q-340 0 -530.5 181.5t-190.5 498.5zM598 551q0 -170 135 -170q86 0 140.5 58.5t68.5 164.5l12 101q6 49 7 75q0 164 -152 164q-147 0 -186 -182q-25 -109 -25 -211z"/>
<glyph unicode="A" d="M432 1286q8 25 19.5 32t35.5 7h72q25 0 37 -7t20 -32q172 -473 375 -1263q1 -5 1 -9q0 -14 -13 -14h-68q-18 0 -20 16q-53 223 -117 441h-500q-63 -217 -116 -441q-2 -16 -21 -16h-67q-13 0 -13 14q0 166 48 370.5t100.5 342.5t131 325t95.5 234zM297 543h455 q-141 487 -213 700h-29q-72 -213 -213 -700z"/>
<glyph unicode="B" horiz-adv-x="1024" d="M147 51v1215q0 33 35 43q104 35 273 34q395 0 395 -307v-30q0 -121 -51 -199t-150 -100v-7q283 -29 283 -303v-28q0 -199 -121 -284t-356 -85q-186 0 -269 10q-39 6 -39 41zM242 119q0 -25 24 -27q53 -6 183 -6q66 0 113.5 4t101 21.5t87 46t56 81t22.5 126.5v22 q0 152 -89 207t-308 55h-190v-530zM242 735h170q166 0 251 59.5t85 219.5v18q0 123 -75 174t-224 51q-121 0 -189 -18q-18 -6 -18 -25v-479z"/>
<glyph unicode="C" horiz-adv-x="1007" d="M115 604v119q0 223 31.5 342t117.5 190q102 88 309 88q197 0 340 -83q16 -10 9 -31l-17 -37q-8 -18 -31 -6q-147 72 -299 71q-174 0 -253 -79q-63 -63 -86 -174t-23 -308v-65q0 -215 18.5 -308.5t75.5 -162.5q78 -92 285 -92q143 0 295 55q23 8 28 -14l11 -43 q4 -18 -13 -25q-147 -59 -331 -59q-262 0 -369 133q-57 72 -77.5 173t-20.5 316z"/>
<glyph unicode="D" horiz-adv-x="1163" d="M147 37v1259q0 35 37 41q100 10 256 11q160 0 265.5 -26t187.5 -94.5t119 -192.5t37 -312v-96q0 -332 -124 -479.5t-427 -147.5h-310q-41 0 -41 37zM242 104q0 -18 16 -18h188q266 0 369 90q135 117 135 467v55q0 178 -29.5 278.5t-93.5 170.5q-104 115 -378 115 q-119 0 -183 -5q-25 -2 -24 -28v-1125z"/>
<glyph unicode="E" horiz-adv-x="931" d="M129 604v117q0 225 12 407q6 100 47 144q51 53 172 53h476q23 0 22 -22v-41q0 -23 -22 -23h-469q-72 0 -96.5 -24.5t-30.5 -100.5q-12 -172 -13 -385h500q23 0 23 -22v-41q0 -23 -23 -23h-500q0 -211 13 -432q6 -76 30.5 -100.5t96.5 -24.5h469q23 0 22 -23v-40 q0 -23 -22 -23h-476q-123 0 -170 49q-39 41 -49 148q-12 126 -12 407z"/>
<glyph unicode="F" horiz-adv-x="876" d="M147 23v1091q0 127 56 170q49 41 166 41h419q23 0 23 -22v-39q0 -25 -23 -25h-411q-82 0 -108.5 -26.5t-26.5 -110.5v-367h473q23 0 22 -22v-41q0 -23 -22 -23h-473v-626q0 -23 -19 -23h-57q-19 0 -19 23z"/>
<glyph unicode="G" horiz-adv-x="1124" d="M115 602v119q0 324 119.5 473t390.5 149q182 0 329 -49q25 -8 21 -28l-8 -39q-6 -23 -33 -15q-156 45 -301 45q-225 0 -322.5 -120.5t-97.5 -442.5v-61q0 -311 93 -438t329 -127q131 0 239 20q31 6 31 37v477h-229q-23 0 -23 23v41q0 23 23 22h303q20 0 20 -20v-602 q0 -39 -38 -48q-147 -37 -330 -36q-285 0 -400.5 147t-115.5 473z"/>
<glyph unicode="H" horiz-adv-x="1181" d="M147 23v1280q0 23 19 22h57q18 0 19 -22v-572h698v572q0 23 18 22h58q18 0 18 -22v-1280q0 -23 -18 -23h-58q-18 0 -18 23v622h-698v-622q0 -23 -19 -23h-57q-19 0 -19 23z"/>
<glyph unicode="I" horiz-adv-x="413" d="M160 23v1280q0 23 18 22h58q18 0 18 -22v-1280q0 -23 -18 -23h-58q-18 0 -18 23z"/>
<glyph unicode="J" horiz-adv-x="575" d="M41 23v40q0 23 22 23h76q139 0 178 78q8 16 12.5 32.5t6.5 43t2 42.5v54v53v914q0 23 18 22h58q18 0 18 -22v-910q0 -12 1 -50q1 -19 1 -33.5t-1 -23.5q-1 -19 -3 -50t-7 -56.5t-15 -48.5q-53 -131 -269 -131h-76q-22 0 -22 23z"/>
<glyph unicode="K" horiz-adv-x="974" d="M147 23v1280q0 23 19 22h57q18 0 19 -22v-578h164q43 0 63 31l379 557q8 12 29 12h63q15 0 15 -8q0 -4 -5 -10l-387 -574q-16 -25 -16 -37q0 -10 16 -39l379 -630q14 -27 -14 -27h-62q-20 0 -30 16l-357 598q-14 25 -65 25h-172v-616q0 -23 -19 -23h-57q-19 0 -19 23z "/>
<glyph unicode="L" horiz-adv-x="727" d="M147 160v1143q0 23 19 22h57q18 0 19 -22v-1125q0 -55 18.5 -73.5t71.5 -18.5h336q23 0 22 -23v-40q0 -23 -22 -23h-342q-96 0 -136 33q-43 37 -43 127z"/>
<glyph unicode="M" horiz-adv-x="1486" d="M104 23q27 657 82 1249q6 53 60 53h61q31 0 44.5 -10t25.5 -43q219 -608 362 -967h9q143 358 362 967q12 33 25.5 43t44.5 10h61q53 0 59 -53q55 -592 82 -1249q0 -23 -16 -23h-61q-20 0 -21 16q-29 692 -76 1227h-12q-162 -461 -356 -948q-16 -39 -30.5 -52.5 t-43.5 -13.5h-47q-29 0 -42 13.5t-30 52.5q-195 487 -356 948h-12q-47 -535 -76 -1227q0 -16 -21 -16h-61q-17 0 -17 23z"/>
<glyph unicode="N" horiz-adv-x="1220" d="M147 23v1237q0 39 14.5 52t49.5 13h41q39 0 57.5 -12.5t36.5 -48.5l623 -1182h12v1221q0 23 18 22h54q20 0 20 -22v-1242q0 -61 -55 -61h-55q-49 0 -72 43l-639 1200h-12v-1220q0 -23 -19 -23h-53q-21 0 -21 23z"/>
<glyph unicode="O" horiz-adv-x="1163" d="M115 604v115q0 201 26.5 315.5t94.5 188.5q106 121 345.5 120.5t346.5 -120.5q68 -74 94.5 -188.5t26.5 -315.5v-115q0 -201 -27 -314.5t-94 -187.5q-106 -121 -346 -120.5t-346 120.5q-68 74 -94.5 187.5t-26.5 314.5zM213 633q0 -182 20.5 -287.5t73.5 -173.5 q80 -104 274.5 -104t274.5 104q53 68 73.5 173.5t20.5 287.5v59q0 190 -19.5 291.5t-74.5 171.5q-78 102 -274.5 102t-274.5 -102q-55 -70 -74.5 -171t-19.5 -292v-59z"/>
<glyph unicode="P" horiz-adv-x="991" d="M147 23v1253q0 37 31 43q129 25 266 24q254 0 365 -91t111 -302v-24q0 -403 -459 -404q-139 0 -219 2v-501q0 -23 -19 -23h-57q-19 0 -19 23zM242 614q98 -6 209 -6q195 0 282.5 71t87.5 249v18q0 162 -86 236.5t-282 74.5q-96 0 -183 -14q-29 -6 -28 -37v-592z"/>
<glyph unicode="Q" horiz-adv-x="1163" d="M115 604v115q0 201 26.5 315.5t94.5 188.5q106 121 345.5 120.5t346.5 -120.5q68 -74 94.5 -188.5t26.5 -315.5v-115q0 -201 -27 -314.5t-94 -187.5q-88 -100 -281 -116q88 -133 277 -258q23 -14 -2 -33l-33 -25q-10 -7 -22 -7t-25 7q-172 104 -305 314q-207 10 -301 118 q-68 74 -94.5 187.5t-26.5 314.5zM213 633q0 -182 20.5 -291t73.5 -176q80 -104 274.5 -104.5t274.5 104.5q53 68 73.5 176.5t20.5 290.5v59q0 193 -20.5 296.5t-73.5 172.5q-78 102 -274.5 102.5t-274.5 -102.5q-53 -70 -73.5 -173t-20.5 -296v-59z"/>
<glyph unicode="R" horiz-adv-x="1030" d="M147 23v1253q0 37 31 43q129 25 266 24q258 0 367 -82.5t109 -285.5v-23q0 -319 -279 -372l324 -555q5 -8 4 -14q0 -11 -19 -11h-65q-25 0 -35 18l-309 547q-27 -2 -84 -2q-139 0 -215 4v-544q0 -23 -19 -23h-57q-19 0 -19 23zM242 655q98 -6 202 -6q199 0 288 66.5 t89 242.5v19q0 154 -85 217t-283 63q-96 0 -183 -14q-29 -6 -28 -37v-551z"/>
<glyph unicode="S" horiz-adv-x="915" d="M88 74l14 47q6 20 27 10q133 -63 299 -63q309 0 309 270v24q0 125 -50 181.5t-189 89.5l-117 29q-291 70 -291 315v37q0 160 101.5 244.5t285.5 84.5q147 0 264 -36q23 -6 17 -31l-8 -41q-6 -20 -31 -12q-115 35 -248 34q-283 0 -283 -243v-23q0 -111 61.5 -163 t176.5 -80l115 -29q170 -43 232.5 -115t62.5 -217v-39q0 -184 -109 -275t-297 -91q-172 0 -330 65q-15 6 -14 17q0 5 2 10z"/>
<glyph unicode="T" horiz-adv-x="978" d="M47 1260v45q0 20 25 20h835q25 0 25 -20v-45q0 -20 -25 -21h-370v-1216q0 -23 -19 -23h-57q-18 0 -19 23v1216h-370q-25 1 -25 21z"/>
<glyph unicode="U" horiz-adv-x="1167" d="M143 422v881q0 23 19 22h57q18 0 19 -22v-871q0 -197 75 -280q80 -92 270.5 -92.5t270.5 92.5q76 84 76 280v871q0 23 18 22h58q18 0 18 -22v-881q0 -231 -104 -334q-106 -106 -336 -106t-336 106q-105 103 -105 334z"/>
<glyph unicode="V" horiz-adv-x="1069" d="M57 1311q0 14 13 14h67q14 0 21 -16q188 -680 364 -1227h25q184 573 362 1227q6 16 21 16h67q15 0 15 -11q0 -5 -2 -11q-205 -729 -383 -1264q-14 -39 -66 -39h-55q-49 0 -64 39q-30 86 -106 275.5t-131.5 332.5t-101.5 331t-46 333z"/>
<glyph unicode="W" horiz-adv-x="1609" d="M52 1311q0 14 14 14h65q18 0 21 -20q106 -639 266 -1223h22q158 610 271 1130q6 31 20 41.5t47 10.5h53q33 0 47.5 -10.5t20.5 -41.5q92 -428 270 -1130h23q160 584 266 1223q2 20 21 20h65q13 0 13 -14q0 -4 -1 -8q-115 -662 -278 -1250q-8 -33 -23.5 -43t-46.5 -10h-51 q-31 0 -47 12.5t-25 44.5q-117 440 -270 1127h-20q-154 -686 -271 -1127q-8 -33 -24.5 -45t-46.5 -12h-52q-31 0 -46 10t-23 43q-20 71 -83.5 281.5t-97.5 334.5t-66.5 309.5t-32.5 332.5z"/>
<glyph unicode="X" horiz-adv-x="1052" d="M57 18l295 633q12 29 13 35q0 12 -13 37l-272 584q-4 6 1 12t13 6h58q23 0 34 -25l252 -538q18 -37 49 -37h78q31 0 49 37l252 538q12 25 35 25h57q8 0 13.5 -6t1.5 -12l-273 -584q-12 -25 -12 -37q0 -6 12 -35l295 -633q2 -5 3 -8q0 -10 -17 -10h-70q-14 0 -22 16 l-260 578q-14 29 -31.5 39t-50.5 10h-41q-33 0 -50.5 -10t-31.5 -39l-260 -578q-8 -16 -23 -16h-69q-17 0 -17 10q0 3 2 8z"/>
<glyph unicode="Y" horiz-adv-x="954" d="M57 1303q-2 6 -2 11q0 11 15 11h67q14 0 21 -16q139 -422 311 -734h16q172 311 312 734q6 16 20 16h68q15 0 14 -11q0 -5 -2 -11q-88 -262 -168 -442.5t-205 -401.5v-436q0 -23 -18 -23h-57q-18 0 -19 23v436q-125 221 -205 401.5t-168 442.5z"/>
<glyph unicode="Z" horiz-adv-x="968" d="M74 23v20q0 37 41 102l673 1102h-665q-16 0 -17 19v41q0 18 17 18h735q25 0 25 -25v-20q0 -33 -11.5 -60.5t-56.5 -99.5l-639 -1042h690q16 0 17 -17v-43q0 -18 -17 -18h-766q-26 0 -26 23z"/>
<glyph unicode="[" horiz-adv-x="499" d="M143 -174v1556q0 14 15 15h295q14 0 14 -15v-55q0 -14 -14 -14h-211v-1417h211q14 0 14 -15v-55q0 -14 -14 -14h-295q-15 0 -15 14z"/>
<glyph unicode="\" horiz-adv-x="630" d="M53 1393q-4 20 17 20h57q16 0 23 -18l428 -1428q6 -20 -17 -20h-57q-16 0 -23 18z"/>
<glyph unicode="]" horiz-adv-x="499" d="M33 -119q0 14 14 15h211v1417h-211q-14 0 -14 14v55q0 14 14 15h295q14 0 14 -15v-1556q0 -14 -14 -14h-295q-14 0 -14 14v55z"/>
<glyph unicode="^" d="M137 745l307 474q14 23 45 22h72q31 0 45 -22l307 -474q12 -16 -6 -28l-49 -23q-18 -12 -31 6l-292 435h-19l-291 -435q-12 -18 -30 -6l-52 23q-18 12 -6 28z"/>
<glyph unicode="_" horiz-adv-x="956" d="M41 -131q0 12 12 12h850q12 0 12 -12v-39q0 -12 -12 -12h-850q-12 0 -12 12v39z"/>
<glyph unicode="`" horiz-adv-x="569" d="M70 1391l26 53q14 31 45 16l346 -194q16 -10 9 -33l-15 -33q-12 -23 -45 -6l-340 154q-42 14 -26 43z"/>
<glyph unicode="a" horiz-adv-x="927" d="M86 266v25q0 152 78 220.5t289 68.5h102q57 0 147 -9v121q0 141 -59 195.5t-190 54.5q-119 0 -246 -37q-27 -8 -33 10l-8 37q-4 20 16 29q127 41 281 41q176 0 252 -82t76 -268v-654q0 -18 -19 -18h-45q-18 0 -20 20l-7 82h-4q-68 -121 -276 -120h-41q-160 0 -226.5 65 t-66.5 219zM176 252q0 -102 45 -146.5t141 -44.5h80q260 0 260 244v187q-74 8 -137 8h-129q-141 0 -200.5 -45t-59.5 -152v-51z"/>
<glyph unicode="b" horiz-adv-x="997" d="M135 340v1030q0 16 15 16h57q16 0 16 -16v-471h4q84 123 299 123q190 0 279.5 -113.5t89.5 -359.5v-96q0 -258 -95 -364.5t-296 -106.5q-197 0 -283 87t-86 271zM223 346q0 -152 69.5 -217.5t213.5 -65.5q166 0 232.5 88.5t66.5 317.5v72q0 215 -69.5 307t-219.5 92 q-154 0 -223.5 -73.5t-69.5 -219.5v-301z"/>
<glyph unicode="c" horiz-adv-x="831" d="M102 475v70q0 285 111 389q90 88 270 88q174 0 281 -82q10 -6 10 -15q0 -5 -4 -12l-27 -39q-8 -12 -26 0q-100 66 -235.5 66t-202.5 -63q-55 -53 -70.5 -136.5t-15.5 -216.5v-35q0 -250 86 -352q63 -74 221 -74q115 0 215 41q20 8 28 -14l9 -27q8 -25 -17 -34 q-109 -47 -235 -47q-186 0 -283 90q-115 108 -115 403z"/>
<glyph unicode="d" horiz-adv-x="993" d="M102 449v100q0 250 85 361.5t290 111.5q207 0 289 -131h4v479q0 16 14 16h58q16 0 16 -16v-1044q0 -344 -366 -344q-207 0 -298.5 101.5t-91.5 365.5zM193 465q0 -225 68.5 -313.5t227.5 -88.5q143 0 212 67t69 224v281q0 145 -76 225t-219 80q-152 0 -217 -90t-65 -313 v-72z"/>
<glyph unicode="e" horiz-adv-x="917" d="M102 455v92q0 250 86 362.5t281 112.5q342 0 342 -371v-123q0 -47 -18.5 -66.5t-65.5 -19.5h-534q4 -215 69.5 -297t224.5 -82q131 0 246 48q20 8 27 -9l12 -32q8 -25 -16 -35q-121 -53 -269 -53q-211 0 -298 108.5t-87 364.5zM195 528h499q12 0 17.5 1t8.5 8.5t3 23.5 v64q0 168 -60.5 241.5t-193.5 73.5q-147 0 -209.5 -88t-64.5 -324z"/>
<glyph unicode="f" horiz-adv-x="540" d="M45 934v39q0 10 12 14l129 17v75q0 121 37 193q70 133 273 133q82 0 157 -21q16 -4 15 -26l-6 -35q-2 -18 -23 -14q-74 16 -133 16q-113 0 -162 -41q-41 -33 -55.5 -81t-14.5 -136v-63h224q16 0 16 -15v-53q0 -14 -16 -14h-224v-906q0 -16 -16 -16h-57q-14 0 -15 16v906 h-129q-12 0 -12 12z"/>
<glyph unicode="g" horiz-adv-x="944" d="M70 -264l16 39q8 16 29 6q158 -82 344 -82q147 0 220 53t73 182v21q0 174 -193 272q-51 -8 -110 -8q-188 0 -270.5 87t-82.5 284v65q0 203 86 285t267 82q31 0 83 -4q70 137 213 137h46q16 0 16 -14v-56q0 -16 -16 -16h-58q-82 0 -112 -72q96 -29 140 -104.5t44 -237.5 v-65q0 -256 -143 -334q90 -57 135 -125t45 -168v-35q0 -170 -102.5 -240.5t-288.5 -70.5q-215 0 -371 90q-12 7 -12 19q0 5 2 10zM186 596q0 -164 62.5 -229.5t200.5 -65.5q145 0 205.5 61.5t60.5 237.5v47q0 168 -63.5 230.5t-203 62.5t-201 -61.5t-61.5 -231.5v-51z"/>
<glyph unicode="h" horiz-adv-x="1019" d="M150 16v1354q0 16 14 16h57q16 0 17 -16v-485q37 63 112.5 101t177.5 38q193 0 274 -97.5t81 -301.5v-609q0 -16 -17 -16h-57q-14 0 -14 16v600q0 172 -63.5 248t-215.5 76q-133 0 -205.5 -73.5t-72.5 -221.5v-629q0 -16 -17 -16h-57q-14 0 -14 16z"/>
<glyph unicode="i" horiz-adv-x="448" d="M147 1266v12q0 78 74 78h8q68 0 68 -78v-12q0 -80 -68 -80h-8q-39 0 -56.5 18.5t-17.5 61.5zM180 16v971q0 16 15 17h57q16 0 16 -17v-971q0 -16 -16 -16h-57q-15 0 -15 16z"/>
<glyph unicode="j" horiz-adv-x="450" d="M-121 -299q0 16 17 16h63q135 0 184 82q37 63 37 195v993q0 16 15 17h57q16 0 16 -17v-985q0 -137 -35 -215q-70 -152 -264 -152h-71q-18 0 -19 19v47zM147 1266v12q0 78 74 78h8q68 0 68 -78v-12q0 -80 -68 -80h-8q-39 0 -56.5 18.5t-17.5 61.5z"/>
<glyph unicode="k" horiz-adv-x="827" d="M150 16v1354q0 16 14 16h57q16 0 17 -16v-795h108q43 0 72 43l270 373q8 12 27 13h57q17 0 17 -10q0 -5 -5 -13l-317 -434q-8 -10 0 -25l315 -499q5 -8 5 -13q0 -10 -17 -10h-55q-18 0 -29 16l-276 441q-20 37 -60 37h-112v-478q0 -16 -17 -16h-57q-14 0 -14 16z"/>
<glyph unicode="l" horiz-adv-x="479" d="M156 217v1153q0 16 14 16h57q16 0 17 -16v-1143q0 -86 22.5 -115.5t81.5 -29.5h53q14 0 15 -14v-52q0 -16 -17 -16h-47q-109 0 -152.5 47t-43.5 170z"/>
<glyph unicode="m" horiz-adv-x="1642" d="M150 16v973q0 14 14 15h45q18 0 18 -17l6 -98h5q76 133 282 133q117 0 188.5 -35t116.5 -113h4q104 147 327.5 147.5t303.5 -142.5q45 -82 45 -254v-609q0 -16 -16 -16h-57q-14 0 -15 16v600q0 221 -102 283q-68 41 -168 41q-184 0 -289 -137q14 -78 14 -178v-609 q0 -16 -16 -16h-57q-14 0 -15 16v615q0 168 -64.5 238.5t-207.5 70.5q-133 0 -203.5 -73.5t-70.5 -213.5v-637q0 -16 -17 -16h-57q-14 0 -14 16z"/>
<glyph unicode="n" horiz-adv-x="1019" d="M150 16v973q0 14 14 15h45q18 0 18 -17l6 -94h3q80 129 292 129q229 0 310 -143q45 -82 45 -254v-609q0 -16 -17 -16h-57q-14 0 -14 16v600q0 221 -103 283q-63 39 -164 41h-15q-130 0 -201 -67q-75 -71 -74 -228v-629q0 -16 -17 -16h-57q-14 0 -14 16z"/>
<glyph unicode="o" horiz-adv-x="962" d="M102 457v90q0 293 111 391q98 84 268 84q178 0 269 -84q111 -100 110 -391v-90q0 -291 -110 -391q-90 -84 -268.5 -84t-268.5 84q-111 100 -111 391zM193 481q0 -231 55 -313q72 -104 233.5 -104.5t233.5 104.5q55 82 55 313v41q0 231 -55 314q-72 104 -234 104 t-233 -104q-55 -82 -55 -314v-41z"/>
<glyph unicode="p" horiz-adv-x="1013" d="M150 -348v1337q0 14 14 15h45q18 0 18 -17l6 -104h5q84 139 307 139q207 0 286.5 -109.5t79.5 -343.5v-118q0 -238 -78.5 -353.5t-279.5 -115.5q-129 0 -197.5 33.5t-111.5 99.5h-6v-463q0 -16 -17 -17h-57q-14 1 -14 17zM238 346q0 -135 81.5 -209t225.5 -74 q152 0 214 82t62 320v86q0 203 -58 296t-224 93q-301 0 -301 -283v-311z"/>
<glyph unicode="q" horiz-adv-x="1015" d="M102 432v107q0 270 88.5 376.5t292.5 106.5q209 0 291 -127h4l8 88q0 20 21 21h39q20 0 20 -19v-1333q0 -16 -16 -17h-57q-14 0 -15 17v457h-6q-98 -127 -289 -127q-201 0 -291 106t-90 344zM193 442q0 -205 66.5 -292t234.5 -87q129 0 206.5 71t77.5 196v323 q0 141 -78.5 214t-220.5 73q-156 0 -221 -92t-65 -330v-76z"/>
<glyph unicode="r" horiz-adv-x="581" d="M150 16v973q0 14 14 15h41q20 0 22 -17l13 -100h2q63 117 223 117h63q16 0 17 -17v-47q0 -18 -19 -18h-61q-131 0 -182 -82q-45 -72 -45 -181v-643q0 -16 -17 -16h-57q-14 0 -14 16z"/>
<glyph unicode="s" horiz-adv-x="782" d="M84 59l10 35q6 18 31 10q131 -45 250 -45q141 0 189 48.5t48 154.5v10q0 109 -35.5 148t-156.5 59l-92 17q-135 23 -187.5 85t-52.5 173v8q0 260 318 260q109 0 219 -29q23 -6 16 -26l-8 -33q-4 -18 -29 -12q-113 23 -205 22q-223 0 -223 -180v-8q0 -90 45 -129t164 -60 l92 -16q121 -23 172 -81t51 -185v-19q0 -154 -79.5 -219t-253.5 -65q-147 0 -271 51q-16 8 -12 26z"/>
<glyph unicode="t" horiz-adv-x="602" d="M18 934v39q0 10 13 14l143 17v239q0 16 16 17h56q16 0 16 -17v-239h250q16 0 16 -15v-53q0 -14 -16 -14h-250v-596q0 -150 39 -195q47 -53 174 -53h62q16 0 16 -17v-45q0 -16 -16 -16h-74q-172 0 -236 82q-33 41 -43 91t-10 142v607h-143q-13 0 -13 12z"/>
<glyph unicode="u" horiz-adv-x="987" d="M139 301v686q0 16 17 17h55q16 0 16 -17v-674q0 -147 56 -196q66 -57 211 -57.5t211 57.5q55 49 55 196v674q0 16 16 17h55q16 0 17 -17v-686q0 -172 -80 -244q-82 -76 -274.5 -75.5t-274.5 75.5q-80 72 -80 244z"/>
<glyph unicode="v" horiz-adv-x="862" d="M49 983q-1 5 -1 8q0 12 15 13h52q20 0 24 -17q129 -518 281 -901h22q152 383 281 901q4 16 25 17h51q16 0 15 -13q0 -4 -1 -8q-121 -496 -295 -930q-23 -53 -67 -53h-39q-45 0 -68 53q-174 434 -295 930z"/>
<glyph unicode="w" horiz-adv-x="1343" d="M48 993q0 6 2 7q3 3 20 4h49q18 0 22 -17q74 -422 211 -901h23q115 422 215 825q10 43 67 43h29q57 0 68 -43q100 -403 215 -825h22q143 498 213 901q2 16 21 17h49q21 0 21 -18q0 -2 -1 -3q-100 -532 -223 -924q-18 -59 -76 -59h-30q-35 0 -50.5 13.5t-25.5 45.5 q-100 336 -207 797h-20q-106 -461 -207 -797q-10 -33 -25.5 -46t-50.5 -13h-31q-57 0 -76 59q-10 33 -63 190t-79.5 246.5t-54 234.5t-27.5 263z"/>
<glyph unicode="x" horiz-adv-x="835" d="M53 18l232 471q14 27 2 50l-217 444q-10 20 10 21h57q16 0 25 -13l188 -401q14 -31 43 -31h45q29 0 43 31l195 401q8 12 24 13h58q20 0 10 -21l-223 -444q-12 -23 2 -50l235 -469q3 -7 4 -11q0 -9 -14 -9h-61q-20 0 -25 12l-209 437q-14 29 -47 28h-31q-20 0 -28.5 -5 t-16.5 -23l-202 -437q-4 -12 -25 -12h-64q-13 0 -12 9q-1 3 2 9z"/>
<glyph unicode="y" horiz-adv-x="831" d="M49 983q-1 5 -1 8q0 12 15 13h54q18 0 22 -19q78 -356 203 -747q27 -80 45.5 -104.5t63.5 -24.5h10q147 389 233 878q2 16 21 17h53q16 0 16 -13q0 -4 -2 -8q-109 -496 -196.5 -767t-229.5 -585q-6 -15 -17 -14q-4 0 -9 2l-47 21q-16 8 -9 24q86 170 158 363 q-55 2 -88 27.5t-57 92.5q-113 308 -238 836z"/>
<glyph unicode="z" horiz-adv-x="790" d="M82 14v25q0 29 35 84l497 799h-497q-16 0 -17 14v53q0 14 17 15h592q16 0 16 -15v-20q0 -31 -37 -92l-498 -795h504q14 0 15 -14v-54q0 -14 -15 -14h-596q-16 0 -16 14z"/>
<glyph unicode="{" horiz-adv-x="569" d="M102 580v51q0 18 15 20q92 23 130 68t38 143v348q0 98 45 142.5t135 44.5h74q14 0 14 -15v-55q0 -14 -14 -14h-66q-57 0 -76.5 -26.5t-19.5 -115.5v-292q0 -127 -43 -191.5t-144 -79.5v-6q102 -29 144.5 -93.5t42.5 -191.5v-280q0 -88 19.5 -114.5t76.5 -26.5h66 q14 0 14 -15v-55q0 -14 -14 -14h-74q-90 0 -135 44t-45 142v330q0 106 -38 157.5t-130 73.5q-15 3 -15 21z"/>
<glyph unicode="|" horiz-adv-x="370" d="M143 -29v1428q0 18 17 18h51q16 0 16 -18v-1428q0 -18 -16 -18h-51q-17 0 -17 18z"/>
<glyph unicode="}" horiz-adv-x="569" d="M16 -119q0 14 15 15h65q57 0 77 26.5t20 114.5v280q0 127 41.5 191.5t144.5 93.5v6q-100 14 -143 79t-43 192v292q0 88 -19.5 115t-77.5 27h-65q-14 0 -15 14v55q0 14 15 15h73q90 0 135.5 -44t45.5 -143v-348q0 -98 37.5 -143t130.5 -68q14 -2 14 -20v-51q0 -18 -14 -21 q-92 -23 -130 -74t-38 -157v-330q0 -98 -45 -142t-136 -44h-73q-14 0 -15 14v55z"/>
<glyph unicode="~" d="M51 592q96 231 260 231q78 0 172 -65l117 -80q82 -53 135 -53q100 0 185 166q8 16 26 4l41 -25q18 -12 10 -31q-51 -113 -120.5 -165t-137.5 -52q-92 0 -196 70l-109 74q-78 55 -125 55q-45 0 -86 -36t-84 -136q-8 -20 -37 -8l-43 20q-16 11 -8 31z"/>
<glyph unicode="¡" horiz-adv-x="442" d="M143 909v41q0 72 66 72h24q66 0 66 -72v-41q0 -74 -66 -73h-24q-66 -1 -66 73zM172 -293l8 989q0 20 17 21h47q16 0 16 -21l8 -989q0 -20 -20 -20h-55q-21 0 -21 20z"/>
<glyph unicode="¢" d="M184 475v70q0 279 111 381q84 78 235 84v204q0 18 19 19h41q20 0 20 -19v-204q147 -12 240 -78q18 -12 8 -29l-22 -37q-8 -14 -29 -2q-84 51 -197 66v-858q92 4 189 41q20 8 28 -15l9 -26q6 -23 -17 -33q-90 -41 -209 -47v-191q0 -18 -20 -18h-41q-18 0 -19 18v193 q-147 8 -231 86q-115 108 -115 395zM274 489q0 -246 86 -344q49 -59 170 -71v856q-109 -6 -170 -60q-55 -53 -70.5 -134t-15.5 -212v-35z"/>
<glyph unicode="£" d="M133 23v16q0 27 35 55q80 66 114.5 155t34.5 224v178h-114q-20 0 -21 17v32q0 20 21 23l114 18v236q0 193 84 276q90 90 267 90q143 0 250 -38q23 -8 16 -27l-12 -39q-6 -20 -31 -12q-111 33 -217 33q-152 0 -205 -68t-53 -238v-215h383q18 0 18 -16v-55q0 -16 -18 -17 h-385v-162q0 -276 -135 -395v-6h636q23 0 23 -22v-41q0 -25 -23 -25h-759q-23 0 -23 23z"/>
<glyph unicode="¤" d="M78 172q-16 16 0 31l155 153q-72 94 -71.5 217t71.5 218l-155 153q-16 14 0 31l35 35q16 16 32 0l152 -150q98 76 231 76q127 0 224 -74l151 148q16 16 33 0l35 -35q16 -16 0 -31l-154 -149q76 -102 76 -221t-76 -222l154 -149q16 -14 0 -31l-35 -35q-16 -16 -33 0 l-151 148q-96 -74 -224 -74q-133 0 -231 76l-152 -150q-16 -16 -32 0zM260 573.5q0 -118.5 78 -197.5t190 -79q111 0 189 79t78 197.5t-78 197.5t-189 79q-113 0 -190.5 -79t-77.5 -197.5z"/>
<glyph unicode="¥" d="M104 1303q-8 23 13 22h67q14 0 21 -16q143 -436 313 -764h10q182 356 316 764q6 16 20 16h68q20 0 12 -22q-137 -412 -326 -758h224q14 0 14 -13v-61q0 -12 -14 -12h-271v-121h271q14 0 14 -12v-62q0 -12 -14 -12h-271v-229q0 -23 -18 -23h-57q-18 0 -19 23v229h-274 q-14 0 -15 12v62q0 12 15 12h274v121h-274q-14 0 -15 12v61q0 12 15 13h225q-183 338 -324 758z"/>
<glyph unicode="¦" horiz-adv-x="370" d="M143 -29v484q0 18 17 18h51q16 0 16 -18v-484q0 -18 -16 -18h-51q-17 0 -17 18zM143 913v486q0 18 17 18h51q16 0 16 -18v-486q0 -18 -16 -18h-51q-17 0 -17 18z"/>
<glyph unicode="§" horiz-adv-x="880" d="M139 674v20q0 72 39 125t109 76q-145 43 -146 209v18q0 129 95 187q76 47 213 47q109 0 208 -31q20 -6 17 -27l-8 -34q-4 -20 -29 -13q-86 27 -191 27q-102 0 -151 -27q-66 -35 -66 -131v-12q0 -72 42 -108.5t145 -57.5l112 -22q115 -23 163 -74t48 -152v-18 q0 -68 -36.5 -122t-104.5 -81q139 -43 139 -219v-18q0 -254 -321 -254q-139 0 -260 47q-18 8 -15 26l11 39q6 20 32 12q117 -43 232 -43q131 0 184 46q49 37 49 124v13q0 80 -33.5 116.5t-142.5 57.5l-115 22q-125 25 -172 77.5t-47 154.5zM227 680q0 -74 32 -107.5 t130 -52.5l121 -24q141 55 141 180v12q0 72 -33.5 104.5t-136.5 53.5l-104 20q-150 -25 -150 -174v-12z"/>
<glyph unicode="¨" horiz-adv-x="663" d="M86 1296v43q0 37 15.5 51.5t54.5 14.5h20q41 0 56.5 -13.5t15.5 -52.5v-43q0 -37 -15.5 -50t-56.5 -13h-20q-41 0 -55.5 13t-14.5 50zM416 1296v43q0 37 15 51.5t54 14.5h21q41 0 56.5 -13.5t15.5 -52.5v-43q0 -37 -15.5 -50t-56.5 -13h-21q-41 0 -55 13t-14 50z"/>
<glyph unicode="©" horiz-adv-x="1630" d="M82 713q0 340 209 540.5t524 200.5t524 -200.5t209 -540.5t-209 -541t-524 -201t-524 201t-209 541zM176 713q0 -297 180.5 -474.5t459 -177.5t458.5 177.5t180 474.5t-180 474t-458.5 177t-459 -177t-180.5 -474zM502 713v24q0 248 106 359q82 84 234 84q104 0 211 -52 q18 -10 8 -30l-12 -29q-8 -18 -25 -10q-92 41 -178 41q-137 0 -194.5 -86t-57.5 -285q0 -201 56.5 -290t191.5 -89q86 0 186 43q18 8 25 -10l10 -37q6 -18 -12 -27q-104 -49 -213 -49q-154 0 -236 84q-100 103 -100 359z"/>
<glyph unicode="ª" horiz-adv-x="608" d="M74 784v21q0 90 54 131t179 41h41q43 0 92 -4v61q0 66 -31.5 93.5t-105.5 27.5q-80 0 -160 -25q-18 -4 -20 11l-6 37q-2 12 10 18q82 29 186 29q113 0 161 -46t48 -155v-389q0 -14 -14 -14h-37q-16 0 -18 14l-7 51h-4q-37 -76 -151 -76h-39q-90 0 -134 40t-44 134z M160 774q0 -96 96 -96h47q137 0 137 117v110q-33 4 -69 4h-68q-80 0 -111.5 -23.5t-31.5 -78.5v-33z"/>
<glyph unicode="«" horiz-adv-x="915" d="M92 457v35q0 14 10 24l279 234q14 10 25 0l32 -33q12 -12 -2 -25l-233 -217l233 -221q14 -12 2 -25l-32 -32q-10 -10 -25 0l-279 235q-10 11 -10 25zM451 457v35q0 14 10 24l278 234q14 10 25 0l33 -33q10 -12 -2 -25l-234 -217l234 -221q12 -12 2 -25l-33 -32 q-10 -10 -25 0l-278 235q-10 11 -10 25z"/>
<glyph unicode="¬" d="M109 504v61q0 14 12 15h805q12 0 12 -13v-463q0 -12 -12 -12h-60q-14 0 -14 12v388h-731q-12 0 -12 12z"/>
<glyph unicode="­" horiz-adv-x="563" d="M72 504v61q0 14 14 15h391q14 0 15 -15v-61q0 -14 -15 -15h-391q-14 1 -14 15z"/>
<glyph unicode="®" horiz-adv-x="1630" d="M82 713q0 340 209 540.5t524 200.5t524 -200.5t209 -540.5t-209 -541t-524 -201t-524 201t-209 541zM176 713q0 -297 180.5 -474.5t459 -177.5t458.5 177.5t180 474.5t-180 474t-458.5 177t-459 -177t-180.5 -474zM559 303v807q0 39 37 45q78 16 188 16q154 0 228 -67 q68 -63 67 -189v-12q0 -119 -63 -182q-43 -45 -121 -64l178 -348q12 -25 -14 -24h-43q-16 0 -22.5 4t-14.5 18l-174 344h-160v-348q0 -18 -20 -18h-45q-21 0 -21 18zM645 727h137q113 0 164 47q45 45 45 135v4q0 94 -48 136.5t-157 42.5q-74 0 -118 -9q-14 -2 -18.5 -8 t-4.5 -22v-326z"/>
<glyph unicode="¯" horiz-adv-x="657" d="M72 1296v43q0 25 22 25h469q23 0 23 -25v-43q0 -23 -23 -22h-469q-22 -1 -22 22z"/>
<glyph unicode="°" horiz-adv-x="602" d="M70 1229q0 96 64.5 160.5t166.5 64.5t166.5 -64.5t64.5 -160.5t-64.5 -162t-166.5 -66t-166.5 66t-64.5 162zM158 1228.5q0 -65.5 40 -108.5t103.5 -43t103 43t39.5 108.5t-39.5 107.5t-103 42t-103.5 -42t-40 -107.5z"/>
<glyph unicode="±" d="M109 12v62q0 14 12 14h805q12 0 12 -12v-64q0 -12 -12 -12h-805q-12 0 -12 12zM109 698v66q0 10 12 10h358v356q0 14 15 15h61q12 0 12 -15v-356h359q12 0 12 -12v-64q0 -12 -12 -12h-359v-358q0 -14 -12 -15h-61q-14 0 -15 15v358h-358q-12 0 -12 12z"/>
<glyph unicode="²" horiz-adv-x="618" d="M84 948v37q0 98 29.5 155.5t103.5 94.5l109 53q55 27 75.5 56.5t20.5 78.5v13q0 61 -31 82.5t-102 21.5q-78 0 -152 -24q-18 -6 -20 8l-8 39q-2 14 10 20q86 29 178 29q109 0 162 -39t53 -127v-12q0 -76 -27.5 -120t-101.5 -81l-104 -51q-63 -31 -85 -67t-22 -99v-15h336 q12 0 12 -12v-45q0 -12 -12 -12h-408q-16 0 -16 16z"/>
<glyph unicode="³" horiz-adv-x="618" d="M100 961l9 43q4 14 16 8q72 -27 147 -27q156 0 156 113v14q0 63 -39 93t-125 30h-41q-12 0 -12 14v41q0 16 14 17h39q82 0 114 28.5t32 91.5v15q0 51 -28 74.5t-93 23.5q-68 0 -139 -22q-18 -6 -21 8l-8 37q-2 14 10 20q82 29 174 29q195 0 195 -164v-16 q0 -129 -109 -158v-4q55 -4 91 -45t36 -105v-20q0 -90 -63.5 -138.5t-165.5 -48.5q-98 0 -183 31q-10 5 -6 17z"/>
<glyph unicode="´" horiz-adv-x="569" d="M66 1233q-8 23 8 33l346 194q31 14 45 -16l27 -53q16 -29 -27 -43l-340 -154q-33 -16 -45 6z"/>
<glyph unicode="µ" horiz-adv-x="1103" d="M150 -348v1335q0 16 16 17h55q16 0 17 -17v-700q0 -125 61 -176.5t193 -51.5q123 0 200.5 72t77.5 227v629q0 16 16 17h56q16 0 16 -17v-825q0 -59 17.5 -81t54.5 -22q39 0 78 15q12 6 18 -11l8 -32q4 -14 -8 -23q-47 -27 -115 -26q-63 0 -98 36.5t-37 102.5h-6 q-80 -139 -285 -139q-180 0 -247 90v-420q0 -16 -17 -17h-55q-16 1 -16 17z"/>
<glyph unicode="μ" horiz-adv-x="1103" d="M150 -348v1335q0 16 16 17h55q16 0 17 -17v-700q0 -125 61 -176.5t193 -51.5q123 0 200.5 72t77.5 227v629q0 16 16 17h56q16 0 16 -17v-825q0 -59 17.5 -81t54.5 -22q39 0 78 15q12 6 18 -11l8 -32q4 -14 -8 -23q-47 -27 -115 -26q-63 0 -98 36.5t-37 102.5h-6 q-80 -139 -285 -139q-180 0 -247 90v-420q0 -16 -17 -17h-55q-16 1 -16 17z"/>
<glyph unicode="¶" horiz-adv-x="1140" d="M98 1061q0 156 107.5 261t279.5 105h545q27 0 27 -24v-39q0 -25 -27 -25h-158v-1564q0 -23 -22 -23h-51q-25 0 -25 23v1564h-211v-1564q0 -23 -22 -23h-52q-25 0 -24 23v921q-150 0 -258.5 97.5t-108.5 267.5z"/>
<glyph unicode="·" horiz-adv-x="378" d="M109 571v56q0 68 69 67h21q41 0 56 -16t15 -51v-56q0 -35 -15 -51t-56 -16h-21q-69 -1 -69 67z"/>
<glyph unicode="¸" horiz-adv-x="458" d="M55 -426l8 45q4 16 21 10q59 -16 129 -16q61 0 90 22.5t29 75.5q0 76 -80 76q-35 0 -80 -10q-14 -2 -22 2l-15 8q-10 8 -8 20l25 179q2 12 14 12h57q14 0 13 -14l-17 -127q37 8 70 8q61 0 98 -37t37 -111q0 -184 -215 -184q-80 0 -141 21q-15 4 -13 20z"/>
<glyph unicode="¹" horiz-adv-x="618" d="M74 1460q-8 10 6 21l121 86q37 27 65 26h62q27 0 26 -22v-570h170q12 0 13 -12v-45q0 -12 -13 -12h-432q-12 0 -12 12v45q0 12 12 12h172v517h-6l-135 -99q-12 -10 -21 2z"/>
<glyph unicode="º" horiz-adv-x="641" d="M74 893v49q0 158 58 220.5t187 62.5q131 0 189.5 -62.5t58.5 -220.5v-49q0 -158 -58 -220.5t-189.5 -62.5t-188.5 62.5t-57 220.5zM160 909q0 -135 34.5 -183t124.5 -48q92 0 127 48t35 183v13q0 135 -35.5 185t-126.5 50q-88 0 -123.5 -50t-35.5 -185v-13z"/>
<glyph unicode="»" horiz-adv-x="923" d="M119 229q-12 12 2 25l233 221l-233 217q-14 12 -2 25l33 33q10 10 24 0l279 -234q10 -10 10 -24v-35q0 -14 -10 -25l-279 -235q-14 -10 -24 0zM485 229q-10 12 2 25l234 221l-234 217q-12 12 -2 25l33 33q10 10 25 0l278 -234q10 -10 10 -24v-35q0 -14 -10 -25l-278 -235 q-14 -10 -25 0z"/>
<glyph unicode="¼" horiz-adv-x="1564" d="M117 1192q-8 10 6 20l121 86q37 27 65 27h62q27 0 26 -22v-570h170q12 0 13 -12v-45q0 -12 -13 -12h-432q-12 0 -12 12v45q0 12 12 12h172v516h-6l-135 -98q-12 -10 -21 2zM336 -14l770 1343q8 14 22 14h62q18 0 8 -18l-770 -1343q-6 -14 -22 -15h-62q-20 1 -8 19z M860 193v47q0 12 17 34l258 371q12 18 32 19h90q16 0 17 -17v-397h78q12 0 12 -10v-50q0 -10 -12 -10h-78v-166q0 -14 -12 -14h-62q-16 0 -16 14v166h-307q-17 1 -17 13zM948 250h236v332h-8z"/>
<glyph unicode="½" horiz-adv-x="1564" d="M117 1192q-8 10 6 20l121 86q37 27 65 27h62q27 0 26 -22v-570h170q12 0 13 -12v-45q0 -12 -13 -12h-432q-12 0 -12 12v45q0 12 12 12h172v516h-6l-135 -98q-12 -10 -21 2zM336 -14l770 1343q8 14 22 14h62q18 0 8 -18l-770 -1343q-6 -14 -22 -15h-62q-20 1 -8 19z M989 16v37q0 98 30 155.5t103 94.5l109 53q55 27 75.5 56.5t20.5 79.5v12q0 61 -30.5 82.5t-102.5 21.5q-78 0 -152 -24q-18 -6 -20 8l-8 39q-2 16 10 20q86 29 178 29q109 0 162 -39t53 -127v-12q0 -76 -27.5 -120t-101.5 -81l-104 -51q-63 -31 -85 -67t-22 -99v-14h336 q12 0 12 -13v-45q0 -12 -12 -12h-407q-17 0 -17 16z"/>
<glyph unicode="¾" horiz-adv-x="1564" d="M168 692l8 43q4 14 17 8q72 -27 147 -26q156 0 156 112v15q0 63 -39 93t-125 30h-41q-12 0 -12 14v41q0 16 14 16h39q82 0 113.5 29t31.5 92v15q0 51 -27.5 74.5t-93.5 23.5q-68 0 -139 -23q-18 -6 -20 8l-9 37q-2 16 11 21q82 29 174 28q195 0 194 -163v-17 q0 -129 -108 -157v-5q55 -4 91 -45t36 -104v-21q0 -90 -63.5 -138t-166.5 -48q-98 0 -182 31q-10 4 -6 16zM336 -14l770 1343q8 14 22 14h62q18 0 8 -18l-770 -1343q-6 -14 -22 -15h-62q-20 1 -8 19zM860 193v47q0 12 17 34l258 371q12 18 32 19h90q16 0 17 -17v-397h78 q12 0 12 -10v-50q0 -10 -12 -10h-78v-166q0 -14 -12 -14h-62q-16 0 -16 14v166h-307q-17 1 -17 13zM948 250h236v332h-8z"/>
<glyph unicode="¿" horiz-adv-x="907" d="M102 4q0 188 197 322l102 69q88 59 112 105.5t24 154.5v58q0 23 18 22h57q18 0 19 -22v-58q0 -125 -30 -188.5t-128 -128.5l-100 -68q-100 -68 -136 -120t-36 -148v-14q0 -248 293 -248q152 0 290 51q18 6 21 -12l10 -43q2 -16 -10 -23q-147 -53 -320 -53 q-383 0 -383 320v24zM504 922v28q0 72 65 72h25q66 0 65 -72v-28q0 -74 -65 -74h-25q-65 0 -65 74z"/>
<glyph unicode="À" d="M57 23q197 784 375 1263q8 25 19.5 32t35.5 7h72q25 0 37 -7t20 -32q172 -473 375 -1263q4 -23 -12 -23h-68q-18 0 -20 16q-53 223 -117 441h-500q-63 -217 -116 -441q-2 -16 -21 -16h-67q-17 0 -13 23zM233 1618l21 55q12 33 43 21l367 -152q18 -8 12 -31l-12 -34 q-8 -25 -43 -13l-357 113q-43 12 -31 41zM297 543h455q-141 487 -213 700h-29q-72 -213 -213 -700z"/>
<glyph unicode="Á" d="M57 23q197 784 375 1263q8 25 19.5 32t35.5 7h72q25 0 37 -7t20 -32q172 -473 375 -1263q4 -23 -12 -23h-68q-18 0 -20 16q-53 223 -117 441h-500q-63 -217 -116 -441q-2 -16 -21 -16h-67q-17 0 -13 23zM297 543h455q-141 487 -213 700h-29q-72 -213 -213 -700zM381 1511 q-6 23 12 31l367 152q31 12 43 -21l20 -55q12 -29 -30 -41l-357 -113q-35 -12 -43 13z"/>
<glyph unicode="Â" d="M57 23q197 784 375 1263q8 25 19.5 32t35.5 7h72q25 0 37 -7t20 -32q172 -473 375 -1263q4 -23 -12 -23h-68q-18 0 -20 16q-53 223 -117 441h-500q-63 -217 -116 -441q-2 -16 -21 -16h-67q-17 0 -13 23zM240 1495q-16 12 2 31l227 250q12 14 31 14h49q18 0 31 -14 l227 -250q16 -16 2 -31l-39 -33q-16 -12 -35 6l-205 211h-12l-205 -211q-20 -20 -34 -6zM297 543h455q-141 487 -213 700h-29q-72 -213 -213 -700z"/>
<glyph unicode="Ã" d="M57 23q197 784 375 1263q8 25 19.5 32t35.5 7h72q25 0 37 -7t20 -32q172 -473 375 -1263q4 -23 -12 -23h-68q-18 0 -20 16q-53 223 -117 441h-500q-63 -217 -116 -441q-2 -16 -21 -16h-67q-17 0 -13 23zM207 1561q72 150 199 149q57 0 120 -47l56 -43q43 -31 75 -31 q59 0 121 105q8 10 19 6l43 -29q16 -10 6 -26q-37 -68 -91.5 -111t-109.5 -43q-63 0 -119 45l-53 41q-47 35 -80 35q-59 0 -117 -103q-8 -14 -24 -4l-41 27q-16 11 -4 29zM297 543h455q-141 487 -213 700h-29q-72 -213 -213 -700z"/>
<glyph unicode="Ä" d="M57 23q197 784 375 1263q8 25 19.5 32t35.5 7h72q25 0 37 -7t20 -32q172 -473 375 -1263q4 -23 -12 -23h-68q-18 0 -20 16q-53 223 -117 441h-500q-63 -217 -116 -441q-2 -16 -21 -16h-67q-17 0 -13 23zM279 1577v43q0 37 15 51.5t54 14.5h21q41 0 56 -13.5t15 -52.5v-43 q0 -37 -15 -50.5t-56 -13.5h-21q-41 0 -55 13.5t-14 50.5zM297 543h455q-141 487 -213 700h-29q-72 -213 -213 -700zM608 1577v43q0 37 15.5 51.5t54.5 14.5h20q41 0 56.5 -13.5t15.5 -52.5v-43q0 -37 -15.5 -50.5t-56.5 -13.5h-20q-41 0 -55.5 13.5t-14.5 50.5z"/>
<glyph unicode="Å" d="M57 23q197 784 375 1263q8 25 19.5 32t35.5 7h72q25 0 37 -7t20 -32q172 -473 375 -1263q4 -23 -12 -23h-68q-18 0 -20 16q-53 223 -117 441h-500q-63 -217 -116 -441q-2 -16 -21 -16h-67q-17 0 -13 23zM297 543h455q-141 487 -213 700h-29q-72 -213 -213 -700zM338 1630 q0 86 53 134t133 48t133.5 -48t53.5 -134t-53.5 -134t-133.5 -48t-133 48t-53 134zM426 1630q0 -47 27.5 -73.5t70.5 -26.5q45 0 72 26.5t27 73.5t-27 74t-72 27q-43 0 -70.5 -27t-27.5 -74z"/>
<glyph unicode="Æ" horiz-adv-x="1579" d="M59 27q367 768 619 1233q20 37 40.5 51t61.5 14h703q23 0 22 -22v-41q0 -23 -22 -23h-604v-510h522q23 0 22 -22v-41q0 -23 -22 -23h-522v-434q0 -70 25.5 -96.5t99.5 -26.5h469q23 0 22 -23v-40q0 -23 -22 -23h-480q-111 0 -161 46t-50 151v260h-417l-201 -432 q-8 -25 -27 -25h-65q-27 0 -13 27zM410 543h372v696h-16q-258 -491 -356 -696z"/>
<glyph unicode="Ç" horiz-adv-x="1007" d="M115 604v119q0 223 31.5 342t117.5 190q102 88 309 88q197 0 340 -83q16 -10 9 -31l-17 -37q-8 -18 -31 -6q-147 72 -299 71q-174 0 -253 -79q-63 -63 -86 -174t-23 -308v-65q0 -215 18.5 -308.5t75.5 -162.5q78 -92 285 -92q158 0 297 57q20 8 26 -10l11 -49 q6 -16 -13 -25q-137 -57 -317 -59l-16 -125q37 8 69 8q61 0 98 -37t37 -111q0 -184 -215 -184q-80 0 -141 21q-14 4 -12 20l8 45q4 16 20 10q59 -16 129 -16q61 0 90 22.5t29 75.5q0 76 -80 76q-35 0 -80 -10q-14 -2 -22 2l-14 8q-10 8 -9 20l25 177q-209 14 -299 131 q-57 72 -77.5 173t-20.5 316z"/>
<glyph unicode="È" horiz-adv-x="931" d="M129 604v117q0 225 12 407q6 100 47 144q51 53 172 53h476q23 0 22 -22v-41q0 -23 -22 -23h-469q-72 0 -96.5 -24.5t-30.5 -100.5q-12 -172 -13 -385h500q23 0 23 -22v-41q0 -23 -23 -23h-500q0 -211 13 -432q6 -76 30.5 -100.5t96.5 -24.5h469q23 0 22 -23v-40 q0 -23 -22 -23h-476q-123 0 -170 49q-39 41 -49 148q-12 126 -12 407zM289 1589l20 56q12 33 43 20l367 -152q18 -8 12 -30l-12 -35q-8 -25 -43 -12l-357 112q-42 12 -30 41z"/>
<glyph unicode="É" horiz-adv-x="931" d="M129 604v117q0 225 12 407q6 100 47 144q51 53 172 53h476q23 0 22 -22v-41q0 -23 -22 -23h-469q-72 0 -96.5 -24.5t-30.5 -100.5q-12 -172 -13 -385h500q23 0 23 -22v-41q0 -23 -23 -23h-500q0 -211 13 -432q6 -76 30.5 -100.5t96.5 -24.5h469q23 0 22 -23v-40 q0 -23 -22 -23h-476q-123 0 -170 49q-39 41 -49 148q-12 126 -12 407zM352 1483q-6 23 13 30l366 152q31 12 43 -20l21 -56q12 -29 -31 -41l-356 -112q-35 -12 -43 12z"/>
<glyph unicode="Ê" horiz-adv-x="931" d="M129 604v117q0 225 12 407q6 100 47 144q51 53 172 53h476q23 0 22 -22v-41q0 -23 -22 -23h-469q-72 0 -96.5 -24.5t-30.5 -100.5q-12 -172 -13 -385h500q23 0 23 -22v-41q0 -23 -23 -23h-500q0 -211 13 -432q6 -76 30.5 -100.5t96.5 -24.5h469q23 0 22 -23v-40 q0 -23 -22 -23h-476q-123 0 -170 49q-39 41 -49 148q-12 126 -12 407zM238 1466q-16 12 2 31l227 250q12 14 31 14h49q18 0 31 -14l227 -250q16 -16 2 -31l-39 -32q-16 -12 -35 6l-205 211h-12l-205 -211q-20 -20 -35 -6z"/>
<glyph unicode="Ë" horiz-adv-x="931" d="M129 604v117q0 225 12 407q6 100 47 144q51 53 172 53h476q23 0 22 -22v-41q0 -23 -22 -23h-469q-72 0 -96.5 -24.5t-30.5 -100.5q-12 -172 -13 -385h500q23 0 23 -22v-41q0 -23 -23 -23h-500q0 -211 13 -432q6 -76 30.5 -100.5t96.5 -24.5h469q23 0 22 -23v-40 q0 -23 -22 -23h-476q-123 0 -170 49q-39 41 -49 148q-12 126 -12 407zM276 1548v43q0 37 15.5 51.5t54.5 14.5h21q41 0 56 -13.5t15 -52.5v-43q0 -37 -15 -50t-56 -13h-21q-41 0 -55.5 13t-14.5 50zM606 1548v43q0 37 15.5 51.5t54.5 14.5h20q41 0 56.5 -13.5t15.5 -52.5 v-43q0 -37 -15.5 -50t-56.5 -13h-20q-41 0 -55.5 13t-14.5 50z"/>
<glyph unicode="Ì" horiz-adv-x="413" d="M-84 1589l21 56q12 33 43 20l366 -152q18 -8 12 -30l-12 -35q-8 -25 -43 -12l-356 112q-43 12 -31 41zM160 23v1280q0 23 18 22h58q18 0 18 -22v-1280q0 -23 -18 -23h-58q-18 0 -18 23z"/>
<glyph unicode="Í" horiz-adv-x="413" d="M55 1483q-6 23 13 30l366 152q31 12 43 -20l21 -56q12 -29 -31 -41l-356 -112q-35 -12 -43 12zM160 23v1280q0 23 18 22h58q18 0 18 -22v-1280q0 -23 -18 -23h-58q-18 0 -18 23z"/>
<glyph unicode="Î" horiz-adv-x="413" d="M-78 1466q-16 12 2 31l228 250q12 14 30 14h49q18 0 31 -14l227 -250q16 -16 3 -31l-39 -32q-16 -12 -35 6l-205 211h-12l-205 -211q-20 -20 -35 -6zM160 23v1280q0 23 18 22h58q18 0 18 -22v-1280q0 -23 -18 -23h-58q-18 0 -18 23z"/>
<glyph unicode="Ï" horiz-adv-x="413" d="M-35 1548v43q0 37 15.5 51.5t54.5 14.5h20q41 0 56.5 -13.5t15.5 -52.5v-43q0 -37 -15.5 -50t-56.5 -13h-20q-41 0 -55.5 13t-14.5 50zM160 23v1280q0 23 18 22h58q18 0 18 -22v-1280q0 -23 -18 -23h-58q-18 0 -18 23zM295 1548v43q0 37 15.5 51.5t54.5 14.5h20 q41 0 56.5 -13.5t15.5 -52.5v-43q0 -37 -15.5 -50t-56.5 -13h-20q-41 0 -55.5 13t-14.5 50z"/>
<glyph unicode="Ð" horiz-adv-x="1202" d="M20 662v45q0 16 21 16h145v573q0 35 37 41q100 10 256 11q160 0 265.5 -26t187.5 -94.5t118.5 -192.5t36.5 -312v-96q0 -332 -123.5 -479.5t-426.5 -147.5h-310q-41 -4 -41 37v608h-145q-21 1 -21 17zM281 104q0 -18 16 -18h188q266 0 369 90q131 113 131 467v55 q0 180 -28.5 280.5t-90.5 168.5q-104 115 -379 115q-119 0 -182 -5q-25 -2 -24 -28v-506h313q20 0 20 -16v-45q0 -16 -20 -17h-313v-541z"/>
<glyph unicode="Ñ" horiz-adv-x="1220" d="M147 23v1237q0 39 14.5 52t49.5 13h41q39 0 57.5 -12.5t36.5 -48.5l623 -1182h12v1221q0 23 18 22h54q20 0 20 -22v-1242q0 -61 -55 -61h-55q-49 0 -72 43l-639 1200h-12v-1220q0 -23 -19 -23h-53q-21 0 -21 23zM287 1532q72 150 198 149q57 0 121 -47l56 -43 q43 -31 75 -30q59 0 121 104q8 10 19 6l43 -29q16 -10 6 -26q-37 -68 -91.5 -111t-109.5 -43q-61 0 -119 45l-53 41q-47 35 -80 35q-59 0 -117 -102q-8 -14 -24 -4l-41 26q-16 11 -4 29z"/>
<glyph unicode="Ò" horiz-adv-x="1163" d="M115 604v115q0 201 26.5 315.5t94.5 188.5q106 121 345.5 120.5t346.5 -120.5q68 -74 94.5 -188.5t26.5 -315.5v-115q0 -201 -27 -314.5t-94 -187.5q-106 -121 -346 -120.5t-346 120.5q-68 74 -94.5 187.5t-26.5 314.5zM213 633q0 -182 20.5 -287.5t73.5 -173.5 q80 -104 274.5 -104t274.5 104q53 68 73.5 173.5t20.5 287.5v59q0 190 -19.5 291.5t-74.5 171.5q-78 102 -274.5 102t-274.5 -102q-55 -70 -74.5 -171t-19.5 -292v-59zM350 1589l21 56q12 33 43 20l366 -152q18 -8 13 -30l-13 -35q-8 -25 -43 -12l-356 112q-43 12 -31 41z "/>
<glyph unicode="Ó" horiz-adv-x="1163" d="M115 604v115q0 201 26.5 315.5t94.5 188.5q106 121 345.5 120.5t346.5 -120.5q68 -74 94.5 -188.5t26.5 -315.5v-115q0 -201 -27 -314.5t-94 -187.5q-106 -121 -346 -120.5t-346 120.5q-68 74 -94.5 187.5t-26.5 314.5zM213 633q0 -182 20.5 -287.5t73.5 -173.5 q80 -104 274.5 -104t274.5 104q53 68 73.5 173.5t20.5 287.5v59q0 190 -19.5 291.5t-74.5 171.5q-78 102 -274.5 102t-274.5 -102q-55 -70 -74.5 -171t-19.5 -292v-59zM424 1483q-6 23 12 30l367 152q31 12 43 -20l20 -56q12 -29 -30 -41l-357 -112q-35 -12 -43 12z"/>
<glyph unicode="Ô" horiz-adv-x="1163" d="M115 604v115q0 201 26.5 315.5t94.5 188.5q106 121 345.5 120.5t346.5 -120.5q68 -74 94.5 -188.5t26.5 -315.5v-115q0 -201 -27 -314.5t-94 -187.5q-106 -121 -346 -120.5t-346 120.5q-68 74 -94.5 187.5t-26.5 314.5zM213 633q0 -182 20.5 -287.5t73.5 -173.5 q80 -104 274.5 -104t274.5 104q53 68 73.5 173.5t20.5 287.5v59q0 190 -19.5 291.5t-74.5 171.5q-78 102 -274.5 102t-274.5 -102q-55 -70 -74.5 -171t-19.5 -292v-59zM301 1466q-16 12 2 31l227 250q12 14 31 14h49q18 0 31 -14l227 -250q16 -16 2 -31l-39 -32 q-16 -12 -34 6l-205 211h-12l-205 -211q-20 -20 -35 -6z"/>
<glyph unicode="Õ" horiz-adv-x="1163" d="M115 604v115q0 201 26.5 315.5t94.5 188.5q106 121 345.5 120.5t346.5 -120.5q68 -74 94.5 -188.5t26.5 -315.5v-115q0 -201 -27 -314.5t-94 -187.5q-106 -121 -346 -120.5t-346 120.5q-68 74 -94.5 187.5t-26.5 314.5zM213 633q0 -182 20.5 -287.5t73.5 -173.5 q80 -104 274.5 -104t274.5 104q53 68 73.5 173.5t20.5 287.5v59q0 190 -19.5 291.5t-74.5 171.5q-78 102 -274.5 102t-274.5 -102q-55 -70 -74.5 -171t-19.5 -292v-59zM274 1532q72 150 199 149q57 0 121 -47l55 -43q43 -31 76 -30q59 0 121 104q8 10 18 6l43 -29 q16 -10 6 -26q-37 -68 -91 -111t-109 -43q-61 0 -119 45l-53 41q-47 35 -80 35q-59 0 -117 -102q-8 -14 -25 -4l-40 26q-17 11 -5 29z"/>
<glyph unicode="Ö" horiz-adv-x="1163" d="M115 604v115q0 201 26.5 315.5t94.5 188.5q106 121 345.5 120.5t346.5 -120.5q68 -74 94.5 -188.5t26.5 -315.5v-115q0 -201 -27 -314.5t-94 -187.5q-106 -121 -346 -120.5t-346 120.5q-68 74 -94.5 187.5t-26.5 314.5zM213 633q0 -182 20.5 -287.5t73.5 -173.5 q80 -104 274.5 -104t274.5 104q53 68 73.5 173.5t20.5 287.5v59q0 190 -19.5 291.5t-74.5 171.5q-78 102 -274.5 102t-274.5 -102q-55 -70 -74.5 -171t-19.5 -292v-59zM342 1548v43q0 37 15.5 51.5t54.5 14.5h20q41 0 56.5 -13.5t15.5 -52.5v-43q0 -37 -15.5 -50t-56.5 -13 h-20q-41 0 -55.5 13t-14.5 50zM672 1548v43q0 37 15 51.5t54 14.5h21q41 0 56.5 -13.5t15.5 -52.5v-43q0 -37 -15.5 -50t-56.5 -13h-21q-41 0 -55 13t-14 50z"/>
<glyph unicode="×" d="M207 283l254 252l-252 251q-12 12 0 21l43 45q10 6 18 -2l252 -252l254 254q10 6 17 0l45 -45q10 -8 0 -19l-252 -253l252 -252q10 -12 2 -21l-43 -43q-12 -8 -21 0l-254 254l-254 -254q-6 -10 -16 0l-43 43q-12 13 -2 21z"/>
<glyph unicode="Ø" horiz-adv-x="1163" d="M115 604v115q0 201 26.5 315.5t94.5 188.5q106 121 346 120q180 0 280 -65l66 127q8 12 24 4l39 -20q14 -8 6 -23l-71 -141q68 -74 95.5 -188.5t27.5 -317.5v-115q0 -201 -27 -314.5t-94 -187.5q-106 -121 -346 -120q-158 0 -258 51l-64 -123q-8 -12 -24 -4l-39 20 q-14 8 -7 23l66 131q-8 6 -20 22q-68 74 -94.5 187.5t-26.5 314.5zM213 633q0 -178 20.5 -282.5t71.5 -174.5l514 1014q-82 68 -237 67q-197 0 -275 -102q-55 -70 -74.5 -171t-19.5 -292v-59zM367 119q82 -51 215 -51q195 0 274 104q53 68 73.5 173.5t20.5 287.5v59 q0 313 -76 432z"/>
<glyph unicode="Ù" horiz-adv-x="1167" d="M143 422v881q0 23 19 22h57q18 0 19 -22v-871q0 -197 75 -280q80 -92 270.5 -92.5t270.5 92.5q76 84 76 280v871q0 23 18 22h58q18 0 18 -22v-881q0 -231 -104 -334q-106 -106 -336 -106t-336 106q-105 103 -105 334zM346 1589l21 56q12 33 43 20l366 -152q18 -8 12 -30 l-12 -35q-8 -25 -43 -12l-356 112q-43 12 -31 41z"/>
<glyph unicode="Ú" horiz-adv-x="1167" d="M143 422v881q0 23 19 22h57q18 0 19 -22v-871q0 -197 75 -280q80 -92 270.5 -92.5t270.5 92.5q76 84 76 280v871q0 23 18 22h58q18 0 18 -22v-881q0 -231 -104 -334q-106 -106 -336 -106t-336 106q-105 103 -105 334zM371 1483q-6 23 12 30l367 152q31 12 43 -20l20 -56 q12 -29 -31 -41l-356 -112q-35 -12 -43 12z"/>
<glyph unicode="Û" horiz-adv-x="1167" d="M143 422v881q0 23 19 22h57q18 0 19 -22v-871q0 -197 75 -280q80 -92 270.5 -92.5t270.5 92.5q76 84 76 280v871q0 23 18 22h58q18 0 18 -22v-881q0 -231 -104 -334q-106 -106 -336 -106t-336 106q-105 103 -105 334zM303 1466q-16 12 2 31l227 250q12 14 31 14h49 q18 0 31 -14l227 -250q16 -16 2 -31l-38 -32q-16 -12 -35 6l-205 211h-12l-205 -211q-20 -20 -35 -6z"/>
<glyph unicode="Ü" horiz-adv-x="1167" d="M143 422v881q0 23 19 22h57q18 0 19 -22v-871q0 -197 75 -280q80 -92 270.5 -92.5t270.5 92.5q76 84 76 280v871q0 23 18 22h58q18 0 18 -22v-881q0 -231 -104 -334q-106 -106 -336 -106t-336 106q-105 103 -105 334zM336 1548v43q0 37 15.5 51.5t54.5 14.5h20 q41 0 56.5 -13.5t15.5 -52.5v-43q0 -37 -15.5 -50t-56.5 -13h-20q-41 0 -55.5 13t-14.5 50zM666 1548v43q0 37 15 51.5t54 14.5h21q41 0 56 -13.5t15 -52.5v-43q0 -37 -15 -50t-56 -13h-21q-41 0 -55 13t-14 50z"/>
<glyph unicode="Ý" horiz-adv-x="954" d="M57 1303q88 -262 168 -442.5t205 -401.5v-436q0 -23 19 -23h57q18 0 18 23v436q125 221 205 401t168 443q8 23 -12 22h-68q-14 0 -20 -16q-139 -422 -312 -734h-16q-172 311 -311 734q-6 16 -21 16h-67q-21 1 -13 -22zM297 1483q-6 23 12 30l367 152q31 12 43 -20l20 -56 q12 -29 -30 -41l-357 -112q-35 -12 -43 12z"/>
<glyph unicode="Þ" horiz-adv-x="991" d="M147 23v1306q0 23 19 23h57q18 0 19 -23v-205q102 16 202 17q254 0 365 -92.5t111 -303.5v-22q0 -403 -459 -404q-135 0 -219 5v-301q0 -23 -19 -23h-57q-19 0 -19 23zM242 412q98 -6 209 -6q195 0 280.5 70.5t85.5 248.5v27q0 162 -84 232.5t-280 70.5q-104 0 -211 -19 v-624z"/>
<glyph unicode="ß" horiz-adv-x="999" d="M150 -98v1155q0 348 342 348q152 0 245.5 -79t93.5 -236v-29q0 -117 -51 -200t-147 -113v-7q143 -14 208.5 -99t65.5 -241v-22q0 -213 -79.5 -305t-284.5 -92q-113 0 -209 30q-14 4 -12 23l8 41q2 16 20 12q86 -25 197 -25q156 0 213 71t57 247v10q0 166 -75.5 233.5 t-247.5 67.5h-70q-23 0 -23 21v37q0 25 23 24h47q133 0 201.5 83t68.5 202v18q0 121 -64.5 183.5t-187.5 62.5q-135 0 -193 -69.5t-58 -239.5v-1112q0 -16 -17 -17h-57q-14 1 -14 17z"/>
<glyph unicode="à" horiz-adv-x="927" d="M86 266v25q0 152 78 220.5t289 68.5h102q57 0 147 -9v121q0 141 -59 195.5t-190 54.5q-119 0 -246 -37q-27 -8 -33 10l-8 37q-4 20 16 29q127 41 281 41q176 0 252 -82t76 -268v-654q0 -18 -19 -18h-45q-18 0 -20 20l-7 82h-4q-68 -121 -276 -120h-41q-160 0 -226.5 65 t-66.5 219zM176 252q0 -102 45 -146.5t141 -44.5h80q260 0 260 244v187q-74 8 -137 8h-129q-141 0 -200.5 -45t-59.5 -152v-51zM244 1391l26 53q14 31 45 16l347 -194q16 -10 8 -33l-15 -33q-12 -23 -45 -6l-340 154q-42 14 -26 43z"/>
<glyph unicode="á" horiz-adv-x="927" d="M86 266v25q0 152 78 220.5t289 68.5h102q57 0 147 -9v121q0 141 -59 195.5t-190 54.5q-119 0 -246 -37q-27 -8 -33 10l-8 37q-4 20 16 29q127 41 281 41q176 0 252 -82t76 -268v-654q0 -18 -19 -18h-45q-18 0 -20 20l-7 82h-4q-68 -121 -276 -120h-41q-160 0 -226.5 65 t-66.5 219zM176 252q0 -102 45 -146.5t141 -44.5h80q260 0 260 244v187q-74 8 -137 8h-129q-141 0 -200.5 -45t-59.5 -152v-51zM299 1233q-8 23 8 33l346 194q31 14 45 -16l27 -53q16 -29 -27 -43l-340 -154q-33 -16 -45 6z"/>
<glyph unicode="â" horiz-adv-x="927" d="M86 266v25q0 152 78 220.5t289 68.5h102q57 0 147 -9v121q0 141 -59 195.5t-190 54.5q-119 0 -246 -37q-27 -8 -33 10l-8 37q-4 20 16 29q127 41 281 41q176 0 252 -82t76 -268v-654q0 -18 -19 -18h-45q-18 0 -20 20l-7 82h-4q-68 -121 -276 -120h-41q-160 0 -226.5 65 t-66.5 219zM176 252q0 -102 45 -146.5t141 -44.5h80q260 0 260 244v187q-74 8 -137 8h-129q-141 0 -200.5 -45t-59.5 -152v-51zM195 1204q-16 12 2 31l227 250q12 14 31 14h49q18 0 31 -14l227 -250q16 -16 2 -31l-39 -33q-16 -12 -35 7l-205 211h-12l-205 -211 q-20 -20 -35 -7z"/>
<glyph unicode="ã" horiz-adv-x="927" d="M86 266v25q0 152 78 220.5t289 68.5h102q57 0 147 -9v121q0 141 -59 195.5t-190 54.5q-119 0 -246 -37q-27 -8 -33 10l-8 37q-4 20 16 29q127 41 281 41q176 0 252 -82t76 -268v-654q0 -18 -19 -18h-45q-18 0 -20 20l-7 82h-4q-68 -121 -276 -120h-41q-160 0 -226.5 65 t-66.5 219zM154 1276q72 150 198 149q57 0 121 -47l55 -43q43 -31 76 -30q59 0 121 104q8 10 18 6l43 -29q16 -10 7 -26q-37 -68 -91.5 -111t-109.5 -43q-63 0 -119 45l-53 41q-47 35 -80 35q-59 0 -117 -102q-8 -14 -24 -4l-41 26q-16 11 -4 29zM176 252q0 -102 45 -146.5 t141 -44.5h80q260 0 260 244v187q-74 8 -137 8h-129q-141 0 -200.5 -45t-59.5 -152v-51z"/>
<glyph unicode="ä" horiz-adv-x="927" d="M86 266v25q0 152 78 220.5t289 68.5h102q57 0 147 -9v121q0 141 -59 195.5t-190 54.5q-119 0 -246 -37q-27 -8 -33 10l-8 37q-4 20 16 29q127 41 281 41q176 0 252 -82t76 -268v-654q0 -18 -19 -18h-45q-18 0 -20 20l-7 82h-4q-68 -121 -276 -120h-41q-160 0 -226.5 65 t-66.5 219zM176 252q0 -102 45 -146.5t141 -44.5h80q260 0 260 244v187q-74 8 -137 8h-129q-141 0 -200.5 -45t-59.5 -152v-51zM227 1296v43q0 37 15.5 51.5t54.5 14.5h20q41 0 56.5 -13.5t15.5 -52.5v-43q0 -37 -15.5 -50t-56.5 -13h-20q-41 0 -55.5 13t-14.5 50zM557 1296 v43q0 37 15.5 51.5t54.5 14.5h20q41 0 56.5 -13.5t15.5 -52.5v-43q0 -37 -15.5 -50t-56.5 -13h-20q-41 0 -55.5 13t-14.5 50z"/>
<glyph unicode="å" horiz-adv-x="927" d="M86 266v25q0 152 78 220.5t289 68.5h102q57 0 147 -9v121q0 141 -59 195.5t-190 54.5q-119 0 -246 -37q-27 -8 -33 10l-8 37q-4 20 16 29q127 41 281 41q176 0 252 -82t76 -268v-654q0 -18 -19 -18h-45q-18 0 -20 20l-7 82h-4q-68 -121 -276 -120h-41q-160 0 -226.5 65 t-66.5 219zM176 252q0 -102 45 -146.5t141 -44.5h80q260 0 260 244v187q-74 8 -137 8h-129q-141 0 -200.5 -45t-59.5 -152v-51zM301 1309q0 86 53.5 134t133 48t133 -48t53.5 -134t-53.5 -134.5t-133 -48.5t-133 48.5t-53.5 134.5zM389 1309q0 -47 27.5 -74t70.5 -27 q45 0 72 27t27 74t-27 73.5t-72 26.5q-43 0 -70.5 -26.5t-27.5 -73.5z"/>
<glyph unicode="æ" horiz-adv-x="1517" d="M86 266v25q0 152 78 220.5t289 68.5h102q57 0 147 -9v121q0 141 -59 195.5t-190 54.5t-246 -37q-27 -8 -33 10l-8 37q-4 20 16 29q127 41 285 41q240 0 295 -162q78 162 307 162q176 0 259 -84t83 -279v-131q0 -47 -18.5 -66.5t-65.5 -19.5h-534q4 -215 69.5 -297 t224.5 -82q131 0 246 48q18 8 27 -9l14 -32q10 -20 -18 -33q-125 -55 -269 -55q-135 0 -223 48t-110 136q-45 -184 -334 -184h-41q-158 0 -225.5 65t-67.5 219zM176 252q0 -102 44 -146.5t142 -44.5h99q242 0 241 244v125v25v37q-74 8 -137 8h-129q-141 0 -200.5 -45 t-59.5 -152v-51zM795 528h495q12 0 17.5 1t8.5 8.5t3 23.5v72q0 170 -58.5 238.5t-191.5 68.5q-150 0 -211 -86t-63 -326z"/>
<glyph unicode="ç" horiz-adv-x="817" d="M102 475v70q0 285 111 389q90 88 270 88q174 0 281 -82q16 -10 6 -27l-27 -39q-8 -12 -26 0q-100 66 -235.5 66t-202.5 -63q-55 -53 -70.5 -136.5t-15.5 -216.5v-35q0 -250 86 -352q63 -74 221 -74q115 0 215 41q20 8 28 -14l9 -27q8 -25 -17 -34q-109 -47 -235 -47h-4 l-17 -125q37 8 70 8q61 0 98 -37t37 -111q0 -184 -215 -184q-80 0 -141 21q-16 4 -13 20l9 45q4 16 20 10q59 -16 129 -16q61 0 90 22.5t29 75.5q0 76 -80 76q-33 0 -80 -10q-14 -2 -22 2l-15 8q-10 8 -8 20l25 179v2q-127 18 -195 84q-115 108 -115 403z"/>
<glyph unicode="è" horiz-adv-x="917" d="M102 455v92q0 250 86 362.5t281 112.5q342 0 342 -371v-123q0 -47 -18.5 -66.5t-65.5 -19.5h-534q4 -215 69.5 -297t224.5 -82q131 0 246 48q20 8 27 -9l12 -32q8 -25 -16 -35q-121 -53 -269 -53q-211 0 -298 108.5t-87 364.5zM195 528h499q12 0 17.5 1t8.5 8.5t3 23.5 v64q0 168 -60.5 241.5t-193.5 73.5q-147 0 -209.5 -88t-64.5 -324zM240 1391l26 53q14 31 45 16l346 -194q16 -10 9 -33l-15 -33q-12 -23 -45 -6l-340 154q-42 14 -26 43z"/>
<glyph unicode="é" horiz-adv-x="917" d="M102 455v92q0 250 86 362.5t281 112.5q342 0 342 -371v-123q0 -47 -18.5 -66.5t-65.5 -19.5h-534q4 -215 69.5 -297t224.5 -82q131 0 246 48q20 8 27 -9l12 -32q8 -25 -16 -35q-121 -53 -269 -53q-211 0 -298 108.5t-87 364.5zM195 528h499q12 0 17.5 1t8.5 8.5t3 23.5 v64q0 168 -60.5 241.5t-193.5 73.5q-147 0 -209.5 -88t-64.5 -324zM270 1233q-8 23 9 33l346 194q31 14 45 -16l26 -53q16 -29 -26 -43l-340 -154q-33 -16 -45 6z"/>
<glyph unicode="ê" horiz-adv-x="917" d="M102 455v92q0 250 86 362.5t281 112.5q342 0 342 -371v-123q0 -47 -18.5 -66.5t-65.5 -19.5h-534q4 -215 69.5 -297t224.5 -82q131 0 246 48q20 8 27 -9l12 -32q8 -25 -16 -35q-121 -53 -269 -53q-211 0 -298 108.5t-87 364.5zM188 1204q-16 12 2 31l228 250q12 14 31 14 h49q18 0 30 -14l228 -250q16 -16 2 -31l-39 -33q-16 -12 -35 7l-205 211h-12l-205 -211q-20 -20 -35 -7zM195 528h499q12 0 17.5 1t8.5 8.5t3 23.5v64q0 168 -60.5 241.5t-193.5 73.5q-147 0 -209.5 -88t-64.5 -324z"/>
<glyph unicode="ë" horiz-adv-x="917" d="M102 455v92q0 250 86 362.5t281 112.5q342 0 342 -371v-123q0 -47 -18.5 -66.5t-65.5 -19.5h-534q4 -215 69.5 -297t224.5 -82q131 0 246 48q20 8 27 -9l12 -32q8 -25 -16 -35q-121 -53 -269 -53q-211 0 -298 108.5t-87 364.5zM195 528h499q12 0 17.5 1t8.5 8.5t3 23.5 v64q0 168 -60.5 241.5t-193.5 73.5q-147 0 -209.5 -88t-64.5 -324zM231 1296v43q0 37 15.5 51.5t54.5 14.5h21q41 0 56 -13.5t15 -52.5v-43q0 -37 -15.5 -50t-55.5 -13h-21q-41 0 -55.5 13t-14.5 50zM561 1296v43q0 37 15.5 51.5t54.5 14.5h20q41 0 56.5 -13.5t15.5 -52.5 v-43q0 -37 -15.5 -50t-56.5 -13h-20q-41 0 -55.5 13t-14.5 50z"/>
<glyph unicode="ì" horiz-adv-x="448" d="M-39 1393l27 53q14 31 45 16l346 -194q16 -10 8 -33l-14 -33q-12 -23 -45 -6l-340 154q-43 14 -27 43zM180 16v971q0 16 15 17h57q16 0 16 -17v-971q0 -16 -16 -16h-57q-15 0 -15 16z"/>
<glyph unicode="í" horiz-adv-x="448" d="M104 1233q-8 23 9 33l346 194q31 14 45 -16l26 -53q16 -29 -26 -43l-340 -154q-33 -16 -45 6zM180 16v971q0 16 15 17h57q16 0 16 -17v-971q0 -16 -16 -16h-57q-15 0 -15 16z"/>
<glyph unicode="î" horiz-adv-x="448" d="M-59 1204q-16 12 2 31l227 250q12 14 31 14h49q18 0 31 -14l227 -250q16 -16 2 -31l-39 -33q-16 -12 -35 7l-205 211h-12l-205 -211q-20 -20 -34 -7zM180 16v971q0 16 15 17h57q16 0 16 -17v-971q0 -16 -16 -16h-57q-15 0 -15 16z"/>
<glyph unicode="ï" horiz-adv-x="448" d="M-20 1296v43q0 37 15 51.5t54 14.5h21q41 0 56 -13.5t15 -52.5v-43q0 -37 -15 -50t-56 -13h-21q-41 0 -55 13t-14 50zM180 16v971q0 16 15 17h57q16 0 16 -17v-971q0 -16 -16 -16h-57q-15 0 -15 16zM309 1296v43q0 37 15.5 51.5t54.5 14.5h20q41 0 56.5 -13.5t15.5 -52.5 v-43q0 -37 -15.5 -50t-56.5 -13h-20q-41 0 -55.5 13t-14.5 50z"/>
<glyph unicode="ð" horiz-adv-x="1026" d="M102 428v61q0 213 99.5 336t298.5 123q162 0 258 -92l4 4q-74 213 -248 369l-190 -139q-14 -10 -27 8l-18 24q-10 16 4 29l172 123q-80 57 -172 96q-18 6 -13 25l17 39q8 18 24 12q113 -47 215 -119l162 117q16 12 27 -2l22 -29q8 -14 -4 -24l-149 -109 q334 -283 334 -768v-57q0 -221 -112 -347t-298 -126q-197 0 -301.5 123.5t-104.5 322.5zM193 451q0 -385 319 -385q152 0 233.5 104t81.5 301v23q0 371 -321 370q-313 0 -313 -391v-22z"/>
<glyph unicode="ñ" horiz-adv-x="1019" d="M150 16v973q0 14 14 15h45q18 0 18 -17l6 -94h3q80 129 292 129q229 0 310 -143q45 -82 45 -254v-609q0 -16 -17 -16h-57q-14 0 -14 16v600q0 221 -103 283q-63 39 -164 41q-141 4 -215.5 -66.5t-74.5 -228.5v-629q0 -16 -17 -16h-57q-14 0 -14 16zM197 1276 q72 150 198 149q57 0 121 -47l55 -43q43 -31 76 -30q59 0 121 104q8 10 18 6l43 -29q16 -10 7 -26q-37 -68 -91.5 -111t-109.5 -43q-61 0 -119 45l-53 41q-47 35 -80 35q-59 0 -117 -102q-8 -14 -24 -4l-41 26q-16 11 -4 29z"/>
<glyph unicode="ò" horiz-adv-x="962" d="M102 457v90q0 293 111 391q98 84 268 84q178 0 269 -84q111 -100 110 -391v-90q0 -291 -110 -391q-90 -84 -268.5 -84t-268.5 84q-111 100 -111 391zM193 481q0 -231 55 -313q72 -104 233.5 -104.5t233.5 104.5q55 82 55 313v41q0 231 -55 314q-72 104 -234 104 t-233 -104q-55 -82 -55 -314v-41zM242 1391l26 53q14 31 45 16l346 -194q16 -10 9 -33l-15 -33q-12 -23 -45 -6l-340 154q-42 14 -26 43z"/>
<glyph unicode="ó" horiz-adv-x="962" d="M102 457v90q0 293 111 391q98 84 268 84q178 0 269 -84q111 -100 110 -391v-90q0 -291 -110 -391q-90 -84 -268.5 -84t-268.5 84q-111 100 -111 391zM193 481q0 -231 55 -313q72 -104 233.5 -104.5t233.5 104.5q55 82 55 313v41q0 231 -55 314q-72 104 -234 104 t-233 -104q-55 -82 -55 -314v-41zM281 1233q-8 23 8 33l346 194q31 14 45 -16l27 -53q16 -29 -27 -43l-340 -154q-33 -16 -45 6z"/>
<glyph unicode="ô" horiz-adv-x="962" d="M102 457v90q0 293 111 391q98 84 268 84q178 0 269 -84q111 -100 110 -391v-90q0 -291 -110 -391q-90 -84 -268.5 -84t-268.5 84q-111 100 -111 391zM193 481q0 -231 55 -313q72 -104 233.5 -104.5t233.5 104.5q55 82 55 313v41q0 231 -55 314q-72 104 -234 104 t-233 -104q-55 -82 -55 -314v-41zM203 1204q-16 12 2 31l227 250q12 14 31 14h49q18 0 31 -14l227 -250q16 -16 2 -31l-39 -33q-16 -12 -35 7l-204 211h-13l-205 -211q-20 -20 -34 -7z"/>
<glyph unicode="õ" horiz-adv-x="962" d="M102 457v90q0 293 111 391q98 84 268 84q178 0 269 -84q111 -100 110 -391v-90q0 -291 -110 -391q-90 -84 -268.5 -84t-268.5 84q-111 100 -111 391zM166 1276q72 150 199 149q57 0 120 -47l56 -43q43 -31 75 -30q59 0 121 104q8 10 19 6l43 -29q16 -10 6 -26 q-37 -68 -91.5 -111t-109.5 -43q-63 0 -119 45l-53 41q-47 35 -80 35q-59 0 -116 -102q-8 -14 -25 -4l-41 26q-16 11 -4 29zM193 481q0 -231 55 -313q72 -104 233.5 -104.5t233.5 104.5q55 82 55 313v41q0 231 -55 314q-72 104 -234 104t-233 -104q-55 -82 -55 -314v-41z "/>
<glyph unicode="ö" horiz-adv-x="962" d="M102 457v90q0 293 111 391q98 84 268 84q178 0 269 -84q111 -100 110 -391v-90q0 -291 -110 -391q-90 -84 -268.5 -84t-268.5 84q-111 100 -111 391zM193 481q0 -231 55 -313q72 -104 233.5 -104.5t233.5 104.5q55 82 55 313v41q0 231 -55 314q-72 104 -234 104 t-233 -104q-55 -82 -55 -314v-41zM238 1296v43q0 37 15 51.5t54 14.5h21q41 0 56 -13.5t15 -52.5v-43q0 -37 -15 -50t-56 -13h-21q-41 0 -55 13t-14 50zM567 1296v43q0 37 15.5 51.5t54.5 14.5h20q41 0 56.5 -13.5t15.5 -52.5v-43q0 -37 -15.5 -50t-56.5 -13h-20 q-41 0 -55.5 13t-14.5 50z"/>
<glyph unicode="÷" d="M109 504v61q0 14 12 15h805q12 0 12 -13v-63q0 -12 -12 -12h-805q-12 0 -12 12zM428 152v57q0 68 76 67h24q45 0 61.5 -16t16.5 -51v-57q0 -35 -16.5 -51.5t-61.5 -16.5h-24q-76 0 -76 68zM428 862v58q0 68 76 67h24q45 0 61.5 -16.5t16.5 -50.5v-58q0 -35 -16.5 -51 t-61.5 -16h-24q-76 -1 -76 67z"/>
<glyph unicode="ø" horiz-adv-x="962" d="M102 457v90q0 293 111 391q98 84 268 84q113 0 197 -37l61 123q6 14 25 6l33 -16q16 -10 8 -25l-66 -127l11 -8q111 -100 110 -391v-90q0 -291 -110 -391q-90 -84 -269 -84q-123 0 -209 41l-59 -119q-6 -14 -25 -6l-32 16q-16 10 -9 25l64 127q-109 100 -109 391z M193 481q0 -231 55 -313l8 -12l381 749q-63 35 -156 35q-162 0 -233 -104q-55 -82 -55 -314v-41zM313 104q66 -41 168 -41q162 0 234 105q55 82 55 313v41q0 231 -55 314l-19 22z"/>
<glyph unicode="ù" horiz-adv-x="987" d="M139 301v686q0 16 17 17h55q16 0 16 -17v-674q0 -147 56 -196q66 -57 211 -57.5t211 57.5q55 49 55 196v674q0 16 16 17h55q16 0 17 -17v-686q0 -172 -80 -244q-82 -76 -274.5 -75.5t-274.5 75.5q-80 72 -80 244zM246 1391l26 53q14 31 45 16l347 -194q16 -10 8 -33 l-15 -33q-12 -23 -45 -6l-340 154q-42 14 -26 43z"/>
<glyph unicode="ú" horiz-adv-x="987" d="M139 301v686q0 16 17 17h55q16 0 16 -17v-674q0 -147 56 -196q66 -57 211 -57.5t211 57.5q55 49 55 196v674q0 16 16 17h55q16 0 17 -17v-686q0 -172 -80 -244q-82 -76 -274.5 -75.5t-274.5 75.5q-80 72 -80 244zM317 1233q-8 23 9 33l346 194q31 14 45 -16l26 -53 q16 -29 -26 -43l-340 -154q-33 -16 -45 6z"/>
<glyph unicode="û" horiz-adv-x="987" d="M139 301v686q0 16 17 17h55q16 0 16 -17v-674q0 -147 56 -196q66 -57 211 -57.5t211 57.5q55 49 55 196v674q0 16 16 17h55q16 0 17 -17v-686q0 -172 -80 -244q-82 -76 -274.5 -75.5t-274.5 75.5q-80 72 -80 244zM211 1204q-16 12 2 31l227 250q12 14 31 14h49 q18 0 31 -14l227 -250q16 -16 2 -31l-39 -33q-16 -12 -34 7l-205 211h-13l-204 -211q-20 -20 -35 -7z"/>
<glyph unicode="ü" horiz-adv-x="987" d="M139 301v686q0 16 17 17h55q16 0 16 -17v-674q0 -147 56 -196q66 -57 211 -57.5t211 57.5q55 49 55 196v674q0 16 16 17h55q16 0 17 -17v-686q0 -172 -80 -244q-82 -76 -274.5 -75.5t-274.5 75.5q-80 72 -80 244zM252 1296v43q0 37 15.5 51.5t54.5 14.5h20 q41 0 56.5 -13.5t15.5 -52.5v-43q0 -37 -15.5 -50t-56.5 -13h-20q-41 0 -55.5 13t-14.5 50zM582 1296v43q0 37 15 51.5t54 14.5h21q41 0 56 -13.5t15 -52.5v-43q0 -37 -15 -50t-56 -13h-21q-41 0 -55 13t-14 50z"/>
<glyph unicode="ý" horiz-adv-x="831" d="M49 983q-6 20 14 21h54q18 0 22 -19q78 -356 203 -747q27 -80 45.5 -104.5t63.5 -24.5h10q147 389 233 878q2 16 21 17h53q20 0 14 -21q-109 -496 -196.5 -767t-229.5 -585q-8 -20 -26 -12l-47 21q-16 8 -9 24q86 170 158 363q-55 2 -88 27.5t-57 92.5q-113 308 -238 836 zM268 1233q-8 23 8 33l347 194q31 14 45 -16l26 -53q16 -29 -26 -43l-340 -154q-33 -16 -45 6z"/>
<glyph unicode="þ" horiz-adv-x="1013" d="M150 -348v1718q0 16 14 16h57q16 0 17 -16v-487h4q43 72 111.5 105.5t191.5 33.5q207 0 286.5 -109.5t79.5 -343.5v-118q0 -238 -78.5 -353.5t-279.5 -115.5q-129 0 -197.5 33.5t-111.5 99.5h-6v-463q0 -16 -17 -17h-57q-14 1 -14 17zM238 346q0 -135 81.5 -209 t225.5 -74q152 0 214 82t62 320v86q0 203 -58 296t-224 93q-301 0 -301 -283v-311z"/>
<glyph unicode="ÿ" horiz-adv-x="831" d="M49 983q-6 20 14 21h54q18 0 22 -19q78 -356 203 -747q27 -80 45.5 -104.5t63.5 -24.5h10q147 389 233 878q2 16 21 17h53q20 0 14 -21q-109 -496 -196.5 -767t-229.5 -585q-8 -20 -26 -12l-47 21q-16 8 -9 24q86 170 158 363q-55 2 -88 27.5t-57 92.5q-113 308 -238 836 zM180 1296v43q0 37 15.5 51.5t54.5 14.5h20q41 0 56.5 -13.5t15.5 -52.5v-43q0 -37 -15.5 -50t-56.5 -13h-20q-41 0 -55.5 13t-14.5 50zM510 1296v43q0 37 15.5 51.5t54.5 14.5h20q41 0 56.5 -13.5t15.5 -52.5v-43q0 -37 -15.5 -50t-56.5 -13h-20q-41 0 -55.5 13t-14.5 50z "/>
<glyph unicode="Œ" horiz-adv-x="1697" d="M115 604v115q0 201 26.5 315.5t94.5 188.5q106 121 346 120q211 0 348 -108q12 25 24 37q51 53 172 53h476q23 0 22 -22v-41q0 -23 -22 -23h-469q-72 0 -96.5 -24.5t-30.5 -100.5q-8 -115 -9 -385h496q23 0 23 -22v-41q0 -23 -23 -23h-496q0 -285 9 -432 q6 -76 30.5 -100.5t96.5 -24.5h469q23 0 22 -23v-40q0 -23 -22 -23h-476q-123 0 -170 49q-25 25 -32 55q-123 -123 -342 -122q-240 0 -346 120q-68 74 -94.5 187.5t-26.5 314.5zM213 633q0 -180 21.5 -285.5t74.5 -175.5q82 -106 273 -106q221 0 325 131q-12 127 -12 407 v117q0 215 12 430q-127 109 -325 109q-193 0 -273 -105q-55 -70 -75.5 -171t-20.5 -292v-59z"/>
<glyph unicode="œ" horiz-adv-x="1585" d="M102 457v90q0 293 111 391q98 84 268 84q252 0 340 -197q68 197 316 197q176 0 259 -84t83 -279v-131q0 -47 -18.5 -66.5t-65.5 -19.5h-535q4 -215 69.5 -297t225.5 -82q131 0 246 48q18 8 26 -9l15 -32q10 -20 -19 -33q-125 -55 -268 -55q-285 0 -342 192 q-33 -88 -117 -140t-215 -52q-178 0 -268 84q-111 100 -111 391zM193 481q0 -231 55 -313q72 -104 233.5 -104.5t233.5 104.5q55 82 55 313v66v22q-6 193 -55 267q-72 104 -234 104t-233 -104q-55 -82 -55 -314v-41zM862 528h496q12 0 17 1t8 8.5t3 23.5v72q0 170 -58 238.5 t-191 68.5q-143 0 -208 -88t-67 -324z"/>
<glyph unicode="Ÿ" horiz-adv-x="954" d="M57 1303q88 -262 168 -442.5t205 -401.5v-436q0 -23 19 -23h57q18 0 18 23v436q125 221 205 401t168 443q8 23 -12 22h-68q-14 0 -20 -16q-139 -422 -312 -734h-16q-172 311 -311 734q-6 16 -21 16h-67q-21 1 -13 -22zM233 1548v43q0 37 15.5 51.5t54.5 14.5h21 q41 0 56 -13.5t15 -52.5v-43q0 -37 -15 -50t-56 -13h-21q-41 0 -55.5 13t-14.5 50zM563 1548v43q0 37 15.5 51.5t54.5 14.5h20q41 0 56.5 -13.5t15.5 -52.5v-43q0 -37 -15.5 -50t-56.5 -13h-20q-41 0 -55.5 13t-14.5 50z"/>
<glyph unicode="ˆ" horiz-adv-x="763" d="M98 1204q-16 12 2 31l228 250q12 14 30 14h50q18 0 30 -14l228 -250q16 -16 2 -31l-39 -33q-16 -12 -35 7l-205 211h-12l-205 -211q-20 -20 -35 -7z"/>
<glyph unicode="˜" horiz-adv-x="851" d="M100 1276q72 150 199 149q57 0 121 -47l55 -43q43 -31 76 -30q59 0 121 104q8 10 18 6l43 -29q16 -10 6 -26q-37 -68 -91 -111t-109 -43q-63 0 -119 45l-53 41q-47 35 -80 35q-59 0 -117 -102q-8 -14 -25 -4l-41 26q-16 11 -4 29z"/>
<glyph unicode=" " horiz-adv-x="905"/>
<glyph unicode=" " horiz-adv-x="1812"/>
<glyph unicode=" " horiz-adv-x="905"/>
<glyph unicode=" " horiz-adv-x="1812"/>
<glyph unicode=" " horiz-adv-x="604"/>
<glyph unicode=" " horiz-adv-x="452"/>
<glyph unicode=" " horiz-adv-x="301"/>
<glyph unicode=" " horiz-adv-x="301"/>
<glyph unicode=" " horiz-adv-x="225"/>
<glyph unicode=" " horiz-adv-x="362"/>
<glyph unicode=" " horiz-adv-x="100"/>
<glyph unicode="‐" horiz-adv-x="563" d="M72 504v61q0 14 14 15h391q14 0 15 -15v-61q0 -14 -15 -15h-391q-14 1 -14 15z"/>
<glyph unicode="‑" horiz-adv-x="563" d="M72 504v61q0 14 14 15h391q14 0 15 -15v-61q0 -14 -15 -15h-391q-14 1 -14 15z"/>
<glyph unicode="‒" horiz-adv-x="563" d="M72 504v61q0 14 14 15h391q14 0 15 -15v-61q0 -14 -15 -15h-391q-14 1 -14 15z"/>
<glyph unicode="–" horiz-adv-x="1024" d="M0 504v61q0 14 14 15h996q14 0 14 -15v-61q0 -14 -14 -15h-996q-14 1 -14 15z"/>
<glyph unicode="—" horiz-adv-x="2048" d="M0 504v61q0 14 14 15h2020q14 0 14 -15v-61q0 -14 -14 -15h-2020q-14 1 -14 15z"/>
<glyph unicode="‘" horiz-adv-x="417" d="M143 1042v41q0 150 107 310q8 14 22 6l39 -23q12 -6 2 -20q-55 -86 -75 -158q-6 -27 16 -37l25 -10q37 -16 36 -59v-68q0 -68 -65 -68h-27q-80 0 -80 86z"/>
<glyph unicode="’" horiz-adv-x="417" d="M102 1270v67q0 68 66 68h27q80 0 79 -86v-41q0 -150 -106 -309q-8 -14 -23 -6l-39 22q-12 6 -2 21q55 86 76 157q6 27 -16 37l-25 10q-37 15 -37 60z"/>
<glyph unicode="‚" horiz-adv-x="417" d="M102 43v68q0 68 66 67h27q80 0 79 -86v-41q0 -150 -106 -309q-8 -14 -23 -6l-39 22q-12 6 -2 21q55 86 76 158q6 27 -16 36l-25 11q-37 16 -37 59z"/>
<glyph unicode="“" horiz-adv-x="692" d="M143 1044v41q0 150 107 310q8 14 22 6l39 -23q12 -6 2 -20q-55 -86 -75 -158q-6 -27 16 -37l25 -10q37 -14 36 -59v-68q0 -68 -65 -68h-27q-80 0 -80 86zM418 1044v41q0 150 106 310q8 14 23 6l39 -23q12 -6 2 -20q-55 -86 -76 -158q-6 -27 16 -37l25 -10q37 -14 37 -59 v-68q0 -68 -66 -68h-26q-80 0 -80 86z"/>
<glyph unicode="”" horiz-adv-x="694" d="M102 1270v67q0 68 66 68h27q80 0 79 -86v-41q0 -150 -106 -309q-8 -14 -23 -6l-39 22q-12 6 -2 21q55 86 76 157q6 27 -16 37l-25 10q-37 15 -37 60zM379 1270v67q0 68 65 68h27q80 0 80 -86v-41q0 -150 -107 -309q-8 -14 -22 -6l-39 22q-12 6 -2 21q55 86 76 157 q6 27 -17 37l-24 10q-37 15 -37 60z"/>
<glyph unicode="„" horiz-adv-x="692" d="M102 43v68q0 68 66 67h27q80 0 79 -86v-41q0 -150 -106 -309q-8 -14 -23 -6l-39 22q-12 6 -2 21q55 86 76 158q6 27 -16 36l-25 11q-37 16 -37 59zM377 43v68q0 68 65 67h27q80 0 80 -86v-41q0 -150 -107 -309q-8 -14 -22 -6l-39 22q-12 6 -2 21q55 86 76 158 q6 27 -17 36l-24 11q-37 16 -37 59z"/>
<glyph unicode="•" horiz-adv-x="698" d="M127 534.5q0 94.5 63.5 159t157.5 64.5t158.5 -64.5t64.5 -159t-64.5 -158t-158.5 -63.5t-157.5 63.5t-63.5 158z"/>
<glyph unicode="…" horiz-adv-x="1136" d="M109 49v55q0 68 69 68h21q41 0 56 -16.5t15 -51.5v-55q0 -35 -15 -51t-56 -16h-21q-69 -1 -69 67zM487 49v55q0 68 70 68h21q41 0 56 -16.5t15 -51.5v-55q0 -35 -15.5 -51t-55.5 -16h-21q-70 -1 -70 67zM866 49v55q0 68 70 68h20q41 0 56.5 -16.5t15.5 -51.5v-55 q0 -35 -15.5 -51t-56.5 -16h-20q-70 -1 -70 67z"/>
<glyph unicode=" " horiz-adv-x="362"/>
<glyph unicode="‹" horiz-adv-x="557" d="M92 457v35q0 14 10 24l279 234q14 10 25 0l32 -33q12 -12 -2 -25l-233 -217l233 -221q14 -12 2 -25l-32 -32q-10 -10 -25 0l-279 235q-10 11 -10 25z"/>
<glyph unicode="›" horiz-adv-x="557" d="M119 229q-12 12 2 25l233 221l-233 217q-14 12 -2 25l33 33q10 10 24 0l279 -234q10 -10 10 -24v-35q0 -14 -10 -25l-279 -235q-14 -10 -24 0z"/>
<glyph unicode=" " horiz-adv-x="452"/>
<glyph unicode="€" d="M39 479v62q0 12 14 12h150v145h-150q-14 0 -14 13v61q0 12 14 12h150q2 199 33.5 301.5t107.5 165.5q111 92 299 92q178 0 324 -75q25 -12 12 -37l-14 -31q-8 -20 -33 -8q-143 66 -287 65q-162 0 -244 -79q-53 -51 -72.5 -139.5t-23.5 -254.5h457q14 0 14 -12v-61 q0 -12 -14 -13h-457v-2v-143h457q14 0 14 -12v-62q0 -12 -14 -12h-457q6 -215 79 -308t280 -93q139 0 276 51q23 8 29 -11l12 -38q6 -18 -12 -27q-143 -61 -322 -61q-244 0 -339 112.5t-105 374.5h-150q-14 0 -14 12z"/>
<glyph unicode="™" horiz-adv-x="1316" d="M53 1272v41q0 12 13 12h407q10 0 10 -12v-41q0 -14 -10 -15h-166v-532q0 -14 -14 -14h-47q-12 0 -14.5 2t-2.5 12v532h-163q-13 1 -13 15zM569 727q0 -16 17 -16h43q14 0 14 14q12 299 27 510h6q61 -219 127 -428q8 -27 35 -27h51q29 0 35 27q51 156 131 428h6 q14 -211 26 -510q0 -14 15 -14h45q18 0 18 16q-10 254 -35 576q0 23 -26 22h-76q-25 0 -33 -22q-72 -266 -127 -439h-8q-51 152 -125 439q-6 23 -30 22h-76q-25 0 -25 -22q-23 -257 -35 -576z"/>
<glyph unicode="" horiz-adv-x="1004" d="M0 1005h1005v-1005h-1005v1005z"/>
<glyph unicode="ﬁ" horiz-adv-x="980" d="M45 934v39q0 10 12 14l129 17v75q0 121 37 193q70 133 301 133q135 0 232 -39q18 -8 16 -25l-6 -32q-2 -20 -23 -15q-106 31 -217 31q-127 0 -182 -41q-41 -31 -55.5 -79t-14.5 -138v-63h510q16 0 17 -17v-971q0 -16 -17 -16h-57q-14 0 -14 16v906h-439v-906 q0 -16 -16 -16h-57q-14 0 -15 16v906h-129q-12 0 -12 12z"/>
<glyph unicode="ﬂ" horiz-adv-x="1042" d="M45 936v39q0 12 12 14l129 17v75q0 121 37 193q70 133 289 133q104 0 211 -33l68 15q16 0 16 -17v-1143q0 -86 22.5 -115.5t81.5 -29.5h54q14 0 14 -14v-52q0 -16 -16 -16h-48q-109 0 -152.5 47t-43.5 170v1073q-88 35 -205 35q-121 0 -170 -41q-41 -33 -55.5 -81 t-14.5 -136v-63h224q16 0 16 -15v-53q0 -14 -16 -14h-224v-906q0 -16 -16 -16h-57q-14 0 -15 16v906h-129q-12 0 -12 12z"/>
<glyph unicode="ﬃ" horiz-adv-x="1529" d="M1228 1266v12q0 78 74 78h8q68 0 68 -78v-12q0 -80 -68 -80h-8q-39 0 -56.5 18.5t-17.5 61.5zM1261 16v971q0 16 15 17h57q16 0 16 -17v-971q0 -16 -16 -16h-57q-15 0 -15 16zM586 934v39q0 10 12 14l129 17v75q0 121 37 193q70 133 273 133q82 0 157 -21q16 -4 15 -26 l-6 -35q-2 -18 -23 -14q-74 16 -133 16q-113 0 -162 -41q-41 -33 -55.5 -81t-14.5 -136v-63h224q16 0 16 -15v-53q0 -14 -16 -14h-224v-906q0 -16 -16 -16h-57q-14 0 -15 16v906h-129q-12 0 -12 12zM45 934v39q0 10 12 14l129 17v75q0 121 37 193q70 133 273 133 q82 0 157 -21q16 -4 15 -26l-6 -35q-2 -18 -23 -14q-74 16 -133 16q-113 0 -162 -41q-41 -33 -55.5 -81t-14.5 -136v-63h224q16 0 16 -15v-53q0 -14 -16 -14h-224v-906q0 -16 -16 -16h-57q-14 0 -15 16v906h-129q-12 0 -12 12z"/>
<glyph unicode="ﬄ" horiz-adv-x="1560" d="M1237 217v1153q0 16 14 16h57q16 0 17 -16v-1143q0 -86 22.5 -115.5t81.5 -29.5h53q14 0 15 -14v-52q0 -16 -17 -16h-47q-109 0 -152.5 47t-43.5 170zM586 934v39q0 10 12 14l129 17v75q0 121 37 193q70 133 273 133q82 0 157 -21q16 -4 15 -26l-6 -35q-2 -18 -23 -14 q-74 16 -133 16q-113 0 -162 -41q-41 -33 -55.5 -81t-14.5 -136v-63h224q16 0 16 -15v-53q0 -14 -16 -14h-224v-906q0 -16 -16 -16h-57q-14 0 -15 16v906h-129q-12 0 -12 12zM45 934v39q0 10 12 14l129 17v75q0 121 37 193q70 133 273 133q82 0 157 -21q16 -4 15 -26l-6 -35 q-2 -18 -23 -14q-74 16 -133 16q-113 0 -162 -41q-41 -33 -55.5 -81t-14.5 -136v-63h224q16 0 16 -15v-53q0 -14 -16 -14h-224v-906q0 -16 -16 -16h-57q-14 0 -15 16v906h-129q-12 0 -12 12z"/>
<glyph horiz-adv-x="462"/>
</font>
</defs>
</svg>
